<?xml version="1.0" encoding="utf-8"?>
<!-- Generator: Adobe Illustrator 22.0.1, SVG Export Plug-In . SVG Version: 6.00 Build 0)  -->
<svg version="1.1" id="fig" xmlns="http://www.w3.org/2000/svg" xmlns:xlink="http://www.w3.org/1999/xlink" x="0px" y="0px"
	 viewBox="0 0 850.4 850.4" style="enable-background:new 0 0 850.4 850.4;" xml:space="preserve">
<style type="text/css">
	.st0{fill:#0066FF;}
	.st1{fill:#FFFFFF;}
</style>
<title>Mesa de trabajo 1</title>
<circle class="st0" cx="425.2" cy="425.2" r="425.2"/>
<g>
	<g>
		<g>
			<path class="st1" d="M423.3,433.8c-36.9,0-66.9-30-66.9-66.9s30-66.9,66.9-66.9s66.9,30,66.9,66.9S460.2,433.8,423.3,433.8z
				 M423.3,317.6c-27.2,0-49.3,22.1-49.3,49.4c0,27.2,22.1,49.4,49.3,49.4c27.2,0,49.3-22.1,49.3-49.4
				C472.7,339.7,450.5,317.6,423.3,317.6z"/>
		</g>
		<g>
			<rect x="366.8" y="522.4" class="st1" width="17.5" height="179.5"/>
		</g>
		<g>
			<rect x="462.4" y="522.4" class="st1" width="17.5" height="179.5"/>
		</g>
		<g>
			<path class="st1" d="M376.2,631.1c-23.4,0-42.5-19.1-42.5-42.5V485.5c0-23.4,19.1-42.5,42.5-42.5h47.1v17.5h-47.1
				c-13.8,0-25,11.2-25,25v103.1c0,13.8,11.2,25,25,25V631.1z"/>
		</g>
		<g>
			<path class="st1" d="M470.5,631.1v-17.5c13.8,0,25-11.2,25-25V485.5c0-13.8-11.2-25-25-25h-47.1V443h47.1
				c23.4,0,42.5,19.1,42.5,42.5v103.1C513,612,493.9,631.1,470.5,631.1z"/>
		</g>
		<g>
			<rect x="414.6" y="622.3" class="st1" width="17.5" height="79.5"/>
		</g>
	</g>
	<g>
		<g>
			<path class="st1" d="M423.3,258.1c-30.8,0-55.8-25-55.8-55.8c0-30.8,25-55.8,55.8-55.8c30.8,0,55.8,25,55.8,55.8
				C479.2,233,454.1,258.1,423.3,258.1z M423.3,163.9c-21.1,0-38.3,17.2-38.3,38.3c0,21.1,17.2,38.3,38.3,38.3
				c21.1,0,38.3-17.2,38.3-38.3C461.7,181.1,444.5,163.9,423.3,163.9z"/>
		</g>
		<g>
			<rect x="385.1" y="262.2" class="st1" width="38.2" height="17.5"/>
		</g>
		<g>
			<rect x="423.3" y="262.2" class="st1" width="38.2" height="17.5"/>
		</g>
	</g>
	<g>
		<g>
			<path class="st1" d="M541.9,350.9c-33.7,0-61.2-27.5-61.2-61.2c0-33.7,27.5-61.2,61.2-61.2c33.7,0,61.2,27.5,61.2,61.2
				C603.1,323.4,575.6,350.9,541.9,350.9z M541.9,246c-24.1,0-43.7,19.6-43.7,43.7s19.6,43.7,43.7,43.7c24.1,0,43.7-19.6,43.7-43.7
				S566,246,541.9,246z"/>
		</g>
		<g>
			<rect x="576.3" y="429.9" class="st1" width="17.5" height="161.9"/>
		</g>
		<g>
			<rect x="499.3" y="357.4" class="st1" width="42.5" height="17.5"/>
		</g>
		<g>
			<path class="st1" d="M584.4,528.9v-17.5c12,0,21.7-9.7,21.7-21.7v-93c0-12-9.7-21.7-21.7-21.7h-42.5v-17.5h42.5
				c21.6,0,39.2,17.6,39.2,39.2v93C623.6,511.3,606,528.9,584.4,528.9z"/>
		</g>
		<g>
			<rect x="533.1" y="520.1" class="st1" width="17.5" height="71.8"/>
		</g>
	</g>
	<g>
		<g>
			<path class="st1" d="M304.8,350.9c-33.7,0-61.2-27.5-61.2-61.2c0-33.7,27.5-61.2,61.2-61.2c33.7,0,61.2,27.5,61.2,61.2
				C366,323.4,338.5,350.9,304.8,350.9z M304.8,246c-24.1,0-43.7,19.6-43.7,43.7s19.6,43.7,43.7,43.7c24.1,0,43.7-19.6,43.7-43.7
				S328.9,246,304.8,246z"/>
		</g>
		<g>
			<rect x="252.8" y="429.9" class="st1" width="17.5" height="161.9"/>
		</g>
		<g>
			<rect x="304.8" y="357.4" class="st1" width="42.5" height="17.5"/>
		</g>
		<g>
			<path class="st1" d="M262.2,528.9c-21.6,0-39.2-17.6-39.2-39.2v-93c0-21.6,17.6-39.2,39.2-39.2h42.5v17.5h-42.5
				c-12,0-21.7,9.7-21.7,21.7v93c0,12,9.7,21.7,21.7,21.7V528.9z"/>
		</g>
		<g>
			<rect x="296" y="520.1" class="st1" width="17.5" height="71.8"/>
		</g>
	</g>
</g>
</svg>
