<svg id="Layer_1" data-name="Layer 1" xmlns="http://www.w3.org/2000/svg" viewBox="0 0 575.6 575.6"><defs><style>.cls-1{fill:#a7cfdf;}.cls-2{fill:#2133df;}</style></defs><title>2-iconohilo</title><circle class="cls-1" cx="287.8" cy="287.8" r="287.8"/><path class="cls-2" d="M473.19,407.74l-48.95-108a9,9,0,0,0-4.54-4.51L359,268.06c-2.52,5.46-5.14,10.92-7.8,16.33l58,26,37.73,83.2-62.72-27.77-21.25-55.48a9,9,0,1,0-16.89,6.47l19.81,51.72L299.52,406V366.46l-3.95,2.74a9,9,0,0,1-10.29,0l-3.85-2.67V406L215.1,368.52l19.81-51.72A9,9,0,0,0,218,310.33l-21.25,55.48L134.1,393.58l37.73-83.2,57.84-26c-2.66-5.4-5.28-10.87-7.8-16.32L161.3,295.27a9,9,0,0,0-4.53,4.51l-48.86,108a9.07,9.07,0,0,0,1.82,10.1,9,9,0,0,0,10,1.9l83.61-37.07L286,429.39a8.6,8.6,0,0,0,1.45.58,5.86,5.86,0,0,0,.69.28,8.8,8.8,0,0,0,4.63,0,8,8,0,0,0,.76-.3,9.07,9.07,0,0,0,1.38-.56l82.65-46.72,83.71,37.07a9,9,0,0,0,11.9-12Z" transform="translate(-0.8 -0.2)"/><path class="cls-2" d="M290.43,353.65a9.06,9.06,0,0,0,7.78-4.43c7-11.83,68.64-116.69,68.64-155.27A76.42,76.42,0,0,0,214,194c0,38.58,61.61,143.44,68.64,155.27A9,9,0,0,0,290.43,353.65Zm0-218A58.4,58.4,0,0,1,348.76,194c0,25.05-36.93,95.07-58.33,132.64C269,289,232.11,219,232.11,194A58.38,58.38,0,0,1,290.43,135.63Z" transform="translate(-0.8 -0.2)"/><path class="cls-2" d="M334.33,194a43.9,43.9,0,1,0-43.9,43.9A43.95,43.95,0,0,0,334.33,194Zm-69.7,0a25.8,25.8,0,1,1,25.8,25.81A25.83,25.83,0,0,1,264.63,194Z" transform="translate(-0.8 -0.2)"/></svg>