<svg xmlns="http://www.w3.org/2000/svg" viewBox="0 0 575.9 575.5"><defs><style>.cls-1{isolation:isolate;}.cls-2{fill:#a7cfdf;}.cls-3{fill:#fff;}.cls-4{fill:#99d630;}.cls-5{fill:#488a99;}.cls-6{fill:#ff9800;stroke:#fff;stroke-miterlimit:10;}.cls-7{fill:#eb8731;}.cls-8{fill:#24521a;}.cls-9{fill:#643e35;}.cls-10{fill:#6fbc9a;}.cls-11,.cls-14{fill:#d1d3d4;}.cls-12{fill:#c8c9c6;}.cls-12,.cls-14,.cls-45{mix-blend-mode:multiply;}.cls-13{fill:#ed1c24;}.cls-15{fill:#5e5e5d;}.cls-16{fill:#e0dcce;}.cls-17{fill:#ded2af;}.cls-18{fill:#c2bfbf;}.cls-19{fill:#9c1f08;}.cls-20{fill:#fff2ca;}.cls-21{fill:#9fe5ea;}.cls-22{fill:#3bc457;}.cls-23{fill:#919396;}.cls-24{fill:#e62600;}.cls-25{fill:#edede3;}.cls-26{fill:#c7bd9d;}.cls-27{fill:#fff6d9;}.cls-28{fill:#fbf8e7;}.cls-29{fill:#db5f6d;}.cls-30{fill:#a14650;}.cls-31{fill:#5aa926;}.cls-32{fill:#3b3630;}.cls-33{fill:#fff0e0;}.cls-34{fill:#f16852;}.cls-35{fill:#ff3437;}.cls-36{fill:#b8b9ba;}.cls-37{fill:#7cbab6;}.cls-38{fill:#c9cbcc;}.cls-39{fill:#c6c2ae;}.cls-40{fill:#a7a7a8;}.cls-41{fill:#231f20;}.cls-42{fill:#a1a2a4;}.cls-43{fill:#3d4721;}.cls-44{fill:#5aab26;}.cls-45{fill:#d9dadb;}.cls-46{fill:#2b4a4c;}.cls-47{fill:#6bcace;}.cls-48{fill:#e7eeee;}.cls-49{fill:#cdd2d2;}.cls-50{fill:#faffff;}.cls-51{fill:#2d6322;}.cls-52{fill:#f5f5f5;}.cls-53{fill:#ffc319;}.cls-54{fill:#fd7ac0;}.cls-55{fill:#fdd001;}</style></defs><title>Mesa de trabajo 1</title><g class="cls-1"><g id="Layer_1" data-name="Layer 1"><circle class="cls-2" cx="288.6" cy="288" r="287.8"/><g id="base"><polygon class="cls-3" points="90.1 438.5 104.8 253 149.3 229.9 193.8 229.9 235.5 207.6 285.5 215.3 326.5 186.8 373 186.1 416.3 172.1 519.5 327 458.1 343 392.7 349.5 335.4 374.8 269.3 382 212.7 406.7 155.4 407.5 90.1 438.5"/><polygon class="cls-4" points="503.5 321.2 452.4 332.4 390.4 343.4 333 367.1 267.8 374.2 212.2 399.6 155.8 400 103.4 421.9 112 256.5 149.7 240.4 195.1 241.2 237.7 218.9 288.5 225.1 332.2 200.4 377.4 194.8 411.3 182.4 503.5 321.2"/><polygon class="cls-5" points="323.2 226 247 256 348 321.2 323.2 226"/><polygon class="cls-5" points="184.7 332 138.7 344.4 150.9 388.3 209.1 359 184.7 332"/><polygon class="cls-6" points="161.7 262.8 146.9 281.6 168.1 306.8 206.9 262.7 161.7 262.8"/><polygon class="cls-7" points="425 338.4 454.1 335.1 503.5 321.2 490.4 300.9 446.1 307.4 425 338.4"/><path class="cls-3" d="M295.2,346.6c1.6,6.2,9,9.8,16.4,7.9s11.9-8.6,10-14.8c-1.9-6-9.1-9.3-16.3-7.5S293.6,340.5,295.2,346.6Z"/><path class="cls-3" d="M343.5,217.8c1,2.3,4.6,3.4,8,2.5s5.4-3.5,4.3-5.7-4.6-3.3-8-2.4S342.6,215.5,343.5,217.8Z"/><path class="cls-3" d="M123,317.4c-.2,5,4.7,7.7,10.9,6.1s11.2-7,11.2-11.9-4.9-7.4-10.9-5.8S123.2,312.5,123,317.4Z"/><polygon class="cls-8" points="173.7 312.5 232.7 391.2 267.8 374.2 283.1 374.3 270.1 302.1 186.6 293.3 173.7 312.5"/><polygon class="cls-9" points="411.3 182.4 377.4 194.8 373.9 220.2 423.3 196.9 411.3 182.4"/><polygon class="cls-10" points="264.5 271.8 273.9 323.6 316.7 303.7 264.5 271.8"/></g><g id="lines"><polygon class="cls-3" points="236.8 395.9 113.9 255 122.2 249.8 246.9 387.6 236.8 395.9"/><polygon class="cls-3" points="173.9 313.2 165.2 309.8 240.2 214.9 248.3 217.1 173.9 313.2"/><polygon class="cls-3" points="370.3 359.5 357.6 362 313.4 200.8 322.7 198.8 370.3 359.5"/><polygon class="cls-3" points="465.6 254.2 333.5 260 333.6 252.2 463.8 246.1 465.6 254.2"/><polygon class="cls-3" points="382.6 252.2 371.5 253 365.7 187.7 375.4 186.8 382.6 252.2"/><polygon class="cls-3" points="351.6 332 221.3 247 228.5 241.2 359.3 324 351.6 332"/><polygon class="cls-3" points="184.8 333.7 103 355 103.3 350.3 184.5 329.2 184.8 333.7"/><polygon class="cls-3" points="152.1 408 136.6 344.8 142 342.6 158.2 405.3 152.1 408"/><path class="cls-3" d="M151.1,389.6l-1.7-4.8c5.8-3,55.5-28.5,58.7-29.9l1.7,4.6C207.5,360.6,173.7,377.9,151.1,389.6Z"/><polygon class="cls-3" points="147.8 283.3 143.8 282.1 181 234.8 184.8 235.7 147.8 283.3"/><polygon class="cls-3" points="205.8 264.3 161 264.7 162.5 261 206.9 260.5 205.8 264.3"/><polygon class="cls-3" points="288.5 379.1 282.3 380.6 261.2 270.8 266.4 269.5 288.5 379.1"/><polygon class="cls-3" points="246.2 258.1 244.5 254.8 324.4 222.8 326.5 225.7 246.2 258.1"/><polygon class="cls-3" points="285 241.2 266.6 214.2 270.9 212.4 289.6 239.2 285 241.2"/><polygon class="cls-3" points="421.7 346.6 415.9 343.7 442.1 305.2 408.5 255 413.5 253.4 449.2 305.5 421.7 346.6"/><path class="cls-3" d="M497.3,303.4c-2.4.1-33.3,4.6-51.3,7l-.7-5.4c14.4-1.9,48.5-6.5,50.9-6.5l1.1,4.9Z"/><polygon class="cls-3" points="275.8 325.5 273.1 321.5 314.3 299.7 317.2 303.5 275.8 325.5"/><polygon class="cls-3" points="268 303.7 185.7 295.9 187.5 291.7 269.3 299.3 268 303.7"/><polygon class="cls-3" points="377.6 222.2 374.5 219.5 425.6 193 428.9 195.5 377.6 222.2"/></g><g id="over"><path class="cls-11" d="M104.8,253l-7.4,92.8Z"/><path class="cls-11" d="M519.5,327l-51.6-77.4Z"/><polygon class="cls-12" points="149.3 229.9 155.4 407.5 212.7 406.7 193.8 229.9 149.3 229.9"/><polygon class="cls-12" points="235.5 207.6 269.3 382 335.4 374.8 285.4 215.3 235.5 207.6"/><polygon class="cls-12" points="373.1 186.1 326.5 186.8 392.9 349.5 458.1 343 373.1 186.1"/></g><g id="label"><path class="cls-3" d="M276.8,169c0,30.7-55.5,104.7-55.5,104.7s-55.5-74-55.5-104.7a55.5,55.5,0,0,1,111,0Z"/><path class="cls-13" d="M221.3,266.2c-5-6.9-14.6-20.5-24-35.7-22.4-36-27.1-53.3-27.1-61.5a51.1,51.1,0,1,1,102.2,0c0,8.2-4.7,25.5-27.1,61.5C235.8,245.7,226.3,259.3,221.3,266.2Z"/><path class="cls-3" d="M260.2,168.4a39,39,0,1,1-39-39A39,39,0,0,1,260.2,168.4Z"/><path class="cls-14" d="M221.3,273.8c0-.1,55.5-74.1,55.5-104.7a55.5,55.5,0,0,0-55.5-55.5V273.8Z"/><path class="cls-15" d="M283.1,293.3c0,.9-34-15.4-34-15.4s-4.2.2-5.5.2c-12.9,0-22.3-3.5-22.3-4.5s10.5-1.8,23.3-1.8h3.3S283.1,292.4,283.1,293.3Z"/></g><g id="houses"><path class="cls-15" d="M441.7,237.8c0,2.1-14.1,3.8-31.5,3.8s-31.5-1.7-31.5-3.8,14.1-3.8,31.5-3.8S441.7,235.7,441.7,237.8Z"/><path class="cls-15" d="M270.2,339.7c-.1,2.1-16.1,3.1-35.7,2.2s-35.5-3.2-35.4-5.3,16.1-3.1,35.7-2.2S270.3,337.6,270.2,339.7Z"/><path class="cls-15" d="M426.5,330c0,2.1-14.1,3.8-31.5,3.8s-31.5-1.7-31.5-3.8,14.1-3.8,31.5-3.8S426.5,327.9,426.5,330Z"/><path class="cls-15" d="M208.7,393.1c0,1.4-8.9,2.5-19.9,2.5s-19.9-1.1-19.9-2.5,8.9-2.5,19.9-2.5S208.7,391.7,208.7,393.1Z"/><rect class="cls-16" x="426.5" y="229.1" width="0.7" height="1.4"/><polygon class="cls-3" points="427.1 230.5 427.2 230.4 427.2 229.1 427.1 229.1 427.1 230.5"/><rect class="cls-17" x="423.2" y="232.8" width="6.7" height="4.3"/><polygon class="cls-18" points="429.9 233.4 423.2 233.5 423.2 232.8 429.9 232.8 429.9 233.4"/><polygon class="cls-19" points="427.7 233.2 434.9 233.2 432.4 229.6 425.2 229.6 427.7 233.2"/><polygon class="cls-20" points="425.8 229.6 432 229.6 434.5 233.2 434.5 237.1 429.9 237.1 429.9 233.2 428.2 233.2 425.8 229.6"/><rect class="cls-3" x="431.7" y="231.4" width="1.1" height="1.2"/><rect class="cls-3" x="431.4" y="234.9" width="1.5" height="2.2"/><rect class="cls-21" x="431.9" y="231.6" width="0.6" height="0.8"/><rect class="cls-22" x="431.7" y="235.2" width="1" height="2"/><polygon class="cls-23" points="431.9 231.6 431.9 231.7 432.4 231.7 432.4 232.4 432.5 232.4 432.5 231.6 431.9 231.6"/><polygon class="cls-23" points="431.9 231.6 431.9 231.7 432.4 231.7 432.5 231.6 431.9 231.6"/><polygon class="cls-23" points="431.7 235.2 431.7 235.3 432.6 235.3 432.6 237.1 432.7 237.1 432.7 235.2 431.7 235.2"/><polygon class="cls-23" points="431.7 235.2 431.7 235.3 432.6 235.3 432.7 235.2 431.7 235.2"/><polygon class="cls-24" points="432.4 229.6 432.3 229.6 434.8 233.2 434.9 233.2 432.4 229.6"/><polygon class="cls-24" points="429.9 233.2 422.7 233.2 425.2 229.6 432.4 229.6 429.9 233.2"/><rect class="cls-19" x="422.7" y="233.2" width="7.2" height="0.1"/><rect class="cls-25" x="432.1" y="231.7" width="0.1" height="0.7"/><rect class="cls-26" x="426.4" y="229" width="0.9" height="0.1"/><rect class="cls-27" x="427.2" y="229" width="0.1" height="0.1"/><rect class="cls-28" x="424.2" y="234.1" width="4.7" height="1.8"/><rect class="cls-21" x="424.4" y="234.3" width="1.3" height="1.4"/><polygon class="cls-23" points="425.6 234.3 425.6 234.4 424.5 234.4 424.5 235.7 424.4 235.7 424.4 234.3 425.6 234.3"/><polygon class="cls-23" points="425.6 234.3 425.6 234.4 424.5 234.4 424.4 234.3 425.6 234.3"/><rect class="cls-21" x="425.9" y="234.3" width="1.3" height="1.4"/><rect class="cls-29" x="426" y="234.4" width="1.1" height="0.2"/><polygon class="cls-23" points="427.1 234.3 427.1 234.4 426 234.4 426 235.7 425.9 235.7 425.9 234.3 427.1 234.3"/><polygon class="cls-23" points="427.1 234.3 427.1 234.4 426 234.4 425.9 234.3 427.1 234.3"/><rect class="cls-25" x="426.5" y="234.4" width="0.1" height="1.3"/><rect class="cls-21" x="427.4" y="234.3" width="1.3" height="1.4"/><polygon class="cls-23" points="428.7 234.3 428.7 234.4 427.6 234.4 427.6 235.7 427.4 235.7 427.4 234.3 428.7 234.3"/><polygon class="cls-23" points="428.7 234.3 428.7 234.4 427.6 234.4 427.4 234.3 428.7 234.3"/><path class="cls-30" d="M428.5,235h0c0,.1.1.1,0,0Z"/><rect class="cls-16" x="417.3" y="227.7" width="0.8" height="1.7"/><polygon class="cls-3" points="418.1 229.3 418.3 229.2 418.3 227.7 418.1 227.7 418.1 229.3"/><rect class="cls-17" x="413.5" y="232.1" width="7.9" height="5.1"/><polygon class="cls-18" points="421.4 232.8 413.5 232.8 413.5 232.1 421.4 232.1 421.4 232.8"/><polygon class="cls-19" points="418.8 232.5 427.3 232.5 424.3 228.2 415.8 228.2 418.8 232.5"/><polygon class="cls-20" points="416.5 228.2 423.8 228.2 426.8 232.5 426.8 237.1 421.4 237.1 421.4 232.5 419.5 232.5 416.5 228.2"/><rect class="cls-3" x="423.5" y="230.4" width="1.3" height="1.5"/><rect class="cls-3" x="423.2" y="234.5" width="1.8" height="2.6"/><rect class="cls-21" x="423.8" y="230.6" width="0.7" height="0.9"/><rect class="cls-22" x="423.5" y="234.8" width="1.2" height="2.3"/><polygon class="cls-23" points="423.8 230.6 423.8 230.8 424.3 230.8 424.3 231.6 424.5 231.6 424.5 230.6 423.8 230.6"/><polygon class="cls-23" points="423.8 230.6 423.8 230.8 424.3 230.8 424.5 230.6 423.8 230.6"/><polygon class="cls-23" points="423.5 234.8 423.5 234.9 424.5 234.9 424.5 237.1 424.7 237.1 424.7 234.8 423.5 234.8"/><polygon class="cls-23" points="423.5 234.8 423.5 234.9 424.5 234.9 424.7 234.8 423.5 234.8"/><polygon class="cls-24" points="424.3 228.2 424.3 228.2 427.2 232.5 427.3 232.5 424.3 228.2"/><polygon class="cls-24" points="421.4 232.5 412.9 232.5 415.8 228.2 424.3 228.2 421.4 232.5"/><rect class="cls-19" x="412.9" y="232.5" width="8.5" height="0.1"/><rect class="cls-25" x="424" y="230.8" width="0.1" height="0.8"/><rect class="cls-26" x="417.3" y="227.5" width="1.1" height="0.2"/><rect class="cls-27" x="418.2" y="227.5" width="0.2" height="0.2"/><rect class="cls-28" x="414.6" y="233.5" width="5.6" height="2.2"/><rect class="cls-21" x="414.9" y="233.8" width="1.5" height="1.6"/><polygon class="cls-23" points="416.3 233.8 416.3 233.9 415 233.9 415 235.4 414.9 235.4 414.9 233.8 416.3 233.8"/><polygon class="cls-23" points="416.3 233.8 416.3 233.9 415 233.9 414.9 233.8 416.3 233.8"/><rect class="cls-25" x="415.6" y="233.9" width="0.1" height="1.5"/><rect class="cls-21" x="416.7" y="233.8" width="1.5" height="1.6"/><rect class="cls-29" x="416.9" y="233.9" width="1.3" height="0.2"/><polygon class="cls-23" points="418.1 233.8 418.1 233.9 416.9 233.9 416.9 235.4 416.7 235.4 416.7 233.8 418.1 233.8"/><polygon class="cls-23" points="418.1 233.8 418.1 233.9 416.9 233.9 416.7 233.8 418.1 233.8"/><rect class="cls-25" x="417.4" y="233.9" width="0.1" height="1.5"/><rect class="cls-21" x="418.5" y="233.8" width="1.5" height="1.6"/><polygon class="cls-23" points="419.9 233.8 419.9 233.9 418.7 233.9 418.7 235.4 418.5 235.4 418.5 233.8 419.9 233.8"/><polygon class="cls-23" points="419.9 233.8 419.9 233.9 418.7 233.9 418.5 233.8 419.9 233.8"/><rect class="cls-25" x="419.2" y="233.9" width="0.1" height="1.5"/><path class="cls-30" d="M417.8,234.9Z"/><rect class="cls-16" x="191.5" y="381.6" width="1" height="2"/><polygon class="cls-3" points="192.5 383.6 192.6 383.4 192.6 381.6 192.5 381.6 192.5 383.6"/><rect class="cls-17" x="187" y="386.8" width="9.3" height="6"/><polygon class="cls-18" points="196.3 387.6 187 387.6 187 386.8 196.3 386.8 196.3 387.6"/><polygon class="cls-19" points="193.2 387.2 203.2 387.2 199.7 382.2 189.7 382.2 193.2 387.2"/><polygon class="cls-20" points="190.5 382.2 199.2 382.2 202.6 387.2 202.6 392.7 196.3 392.7 196.3 387.2 194 387.2 190.5 382.2"/><rect class="cls-3" x="198.8" y="384.8" width="1.5" height="1.7"/><rect class="cls-3" x="198.4" y="389.6" width="2.1" height="3.1"/><rect class="cls-21" x="199.1" y="385.1" width="0.9" height="1.1"/><rect class="cls-22" x="198.8" y="390" width="1.4" height="2.7"/><polygon class="cls-23" points="199.1 385.1 199.1 385.2 199.7 385.2 199.7 386.2 199.9 386.2 199.9 385.1 199.1 385.1"/><polygon class="cls-23" points="199.1 385.1 199.1 385.2 199.7 385.2 199.9 385.1 199.1 385.1"/><polygon class="cls-23" points="198.8 390 198.8 390.1 200 390.1 200 392.7 200.2 392.7 200.2 390 198.8 390"/><polygon class="cls-23" points="198.8 390 198.8 390.1 200 390.1 200.2 390 198.8 390"/><polygon class="cls-24" points="199.7 382.2 199.6 382.2 203.1 387.2 203.2 387.2 199.7 382.2"/><polygon class="cls-24" points="196.3 387.2 186.3 387.2 189.7 382.2 199.7 382.2 196.3 387.2"/><rect class="cls-19" x="186.3" y="387.2" width="10" height="0.2"/><rect class="cls-25" x="199.3" y="385.2" width="0.1" height="1"/><rect class="cls-26" x="191.4" y="381.4" width="1.3" height="0.2"/><rect class="cls-27" x="192.5" y="381.4" width="0.2" height="0.2"/><rect class="cls-28" x="188.3" y="388.5" width="6.6" height="2.6"/><rect class="cls-21" x="188.6" y="388.8" width="1.7" height="1.9"/><polygon class="cls-23" points="190.3 388.8 190.3 388.9 188.8 388.9 188.8 390.7 188.6 390.7 188.6 388.8 190.3 388.8"/><polygon class="cls-23" points="190.3 388.8 190.3 388.9 188.8 388.9 188.6 388.8 190.3 388.8"/><rect class="cls-25" x="189.4" y="388.9" width="0.1" height="1.8"/><rect class="cls-21" x="190.7" y="388.8" width="1.7" height="1.9"/><rect class="cls-29" x="190.9" y="388.9" width="1.5" height="0.2"/><rect class="cls-30" x="190.9" y="389.2" width="1.5" height="0.1"/><polygon class="cls-23" points="192.4 388.8 192.4 388.9 190.9 388.9 190.9 390.7 190.7 390.7 190.7 388.8 192.4 388.8"/><polygon class="cls-23" points="192.4 388.8 192.4 388.9 190.9 388.9 190.7 388.8 192.4 388.8"/><rect class="cls-25" x="191.6" y="388.9" width="0.1" height="1.8"/><rect class="cls-21" x="192.8" y="388.8" width="1.7" height="1.9"/><polygon class="cls-23" points="194.6 388.8 194.6 388.9 193.1 388.9 193.1 390.7 192.8 390.7 192.8 388.8 194.6 388.8"/><polygon class="cls-23" points="194.6 388.8 194.6 388.9 193.1 388.9 192.8 388.8 194.6 388.8"/><rect class="cls-25" x="193.7" y="388.9" width="0.1" height="1.8"/><rect class="cls-16" x="178.8" y="379.6" width="1.1" height="2.3"/><polygon class="cls-3" points="179.9 381.9 180.1 381.7 180.1 379.6 179.9 379.6 179.9 381.9"/><rect class="cls-17" x="173.5" y="385.7" width="11" height="7"/><polygon class="cls-18" points="184.5 386.7 173.5 386.7 173.5 385.7 184.5 385.7 184.5 386.7"/><polygon class="cls-19" points="180.8 386.2 192.6 386.2 188.5 380.3 176.7 380.3 180.8 386.2"/><polygon class="cls-20" points="177.7 380.3 187.9 380.3 192 386.2 192 392.7 184.5 392.7 184.5 386.2 181.8 386.2 177.7 380.3"/><rect class="cls-3" x="187.4" y="383.3" width="1.8" height="2"/><rect class="cls-3" x="187" y="389.1" width="2.4" height="3.6"/><rect class="cls-21" x="187.7" y="383.7" width="1" height="1.3"/><rect class="cls-22" x="187.4" y="389.5" width="1.7" height="3.2"/><polygon class="cls-23" points="187.7 383.7 187.7 383.9 188.5 383.9 188.5 385 188.8 385 188.8 383.7 187.7 383.7"/><polygon class="cls-23" points="187.7 383.7 187.7 383.9 188.5 383.9 188.8 383.7 187.7 383.7"/><polygon class="cls-23" points="187.4 389.5 187.4 389.6 188.8 389.6 188.8 392.7 189.1 392.7 189.1 389.5 187.4 389.5"/><polygon class="cls-23" points="187.4 389.5 187.4 389.6 188.8 389.6 189.1 389.5 187.4 389.5"/><polygon class="cls-24" points="188.5 380.3 188.4 380.3 192.5 386.2 192.6 386.2 188.5 380.3"/><polygon class="cls-24" points="184.5 386.2 172.6 386.2 176.7 380.3 188.5 380.3 184.5 386.2"/><rect class="cls-19" x="172.6" y="386.2" width="11.8" height="0.2"/><rect class="cls-25" x="188.1" y="383.9" width="0.1" height="1.1"/><rect class="cls-25" x="187.8" y="390.2" width="0.6" height="0.1"/><rect class="cls-26" x="178.7" y="379.3" width="1.5" height="0.2"/><rect class="cls-27" x="180" y="379.3" width="0.2" height="0.2"/><rect class="cls-28" x="175" y="387.7" width="7.8" height="3"/><rect class="cls-21" x="175.4" y="388.1" width="2.1" height="2.2"/><polygon class="cls-23" points="177.4 388.1 177.4 388.2 175.6 388.2 175.6 390.3 175.4 390.3 175.4 388.1 177.4 388.1"/><polygon class="cls-23" points="177.4 388.1 177.4 388.2 175.6 388.2 175.4 388.1 177.4 388.1"/><rect class="cls-25" x="176.4" y="388.2" width="0.1" height="2.1"/><rect class="cls-21" x="177.9" y="388.1" width="2.1" height="2.2"/><rect class="cls-29" x="178.2" y="388.2" width="1.8" height="0.3"/><rect class="cls-30" x="178.2" y="388.5" width="1.8" height="0.1"/><polygon class="cls-23" points="179.9 388.1 179.9 388.2 178.2 388.2 178.2 390.3 177.9 390.3 177.9 388.1 179.9 388.1"/><polygon class="cls-23" points="179.9 388.1 179.9 388.2 178.2 388.2 177.9 388.1 179.9 388.1"/><rect class="cls-25" x="178.9" y="388.2" width="0.1" height="2.1"/><rect class="cls-21" x="180.4" y="388.1" width="2.1" height="2.2"/><polygon class="cls-23" points="182.5 388.1 182.5 388.2 180.7 388.2 180.7 390.3 180.4 390.3 180.4 388.1 182.5 388.1"/><polygon class="cls-23" points="182.5 388.1 182.5 388.2 180.7 388.2 180.4 388.1 182.5 388.1"/><rect class="cls-25" x="181.4" y="388.2" width="0.1" height="2.1"/><path class="cls-30" d="M179.5,389.6h0c.1.1.1,0,0,0Z"/><path class="cls-30" d="M182.2,389.3h0c.1-.1,0-.1,0,0Z"/><polygon class="cls-31" points="421.4 326.9 421.4 326.9 421.4 326.9 421.4 326.9 421.4 326.9 421.4 326.9 421.3 326.9 421.3 326.9 421.4 326.9 421.4 327 421.4 327 421.4 327 421.4 326.9"/><rect class="cls-16" x="400.9" y="308.2" width="1.8" height="3.7"/><polygon class="cls-3" points="402.7 311.9 403 311.6 403 308.2 402.7 308.2 402.7 311.9"/><rect class="cls-17" x="392.5" y="317.8" width="17.4" height="11.1"/><polygon class="cls-18" points="409.8 319.4 392.5 319.5 392.5 317.8 409.8 317.8 409.8 319.4"/><polygon class="cls-19" points="404.1 318.7 422.7 318.7 416.3 309.4 397.6 309.4 404.1 318.7"/><polygon class="cls-20" points="399.1 309.4 415.2 309.4 421.7 318.7 421.7 328.9 409.8 328.9 409.8 318.7 405.6 318.7 399.1 309.4"/><rect class="cls-3" x="414.4" y="314.2" width="2.8" height="3.2"/><rect class="cls-3" x="413.8" y="323.2" width="3.8" height="5.8"/><rect class="cls-21" x="415" y="314.7" width="1.6" height="2.1"/><rect class="cls-22" x="414.5" y="323.8" width="2.7" height="5.1"/><polygon class="cls-23" points="415 314.7 415 315 416.2 315 416.2 316.8 416.6 316.8 416.6 314.7 415 314.7"/><polygon class="cls-23" points="415 314.7 415 315 416.2 315 416.6 314.7 415 314.7"/><polygon class="cls-23" points="414.5 323.8 414.5 324.1 416.7 324.1 416.7 328.9 417.1 328.9 417.1 323.8 414.5 323.8"/><polygon class="cls-23" points="414.5 323.8 414.5 324.1 416.7 324.1 417.1 323.8 414.5 323.8"/><polygon class="cls-24" points="416.3 309.4 416.1 309.4 422.6 318.7 422.7 318.7 416.3 309.4"/><polygon class="cls-24" points="409.8 318.7 391.1 318.7 397.6 309.4 416.3 309.4 409.8 318.7"/><rect class="cls-19" x="391.1" y="318.7" width="18.7" height="0.3"/><rect class="cls-25" x="415.5" y="315" width="0.1" height="1.8"/><rect class="cls-25" x="415.2" y="325" width="1" height="0.1"/><rect class="cls-26" x="400.7" y="307.8" width="2.4" height="0.4"/><rect class="cls-27" x="402.8" y="307.8" width="0.3" height="0.4"/><rect class="cls-28" x="394.9" y="321" width="12.3" height="4.8"/><rect class="cls-21" x="395.5" y="321.6" width="3.2" height="3.5"/><polygon class="cls-23" points="398.7 321.6 398.7 321.9 395.9 321.9 395.9 325.2 395.5 325.2 395.5 321.6 398.7 321.6"/><polygon class="cls-23" points="398.7 321.6 398.7 321.9 395.9 321.9 395.5 321.6 398.7 321.6"/><rect class="cls-25" x="397.1" y="321.9" width="0.1" height="3.3"/><rect class="cls-21" x="399.4" y="321.6" width="3.2" height="3.5"/><rect class="cls-29" x="399.9" y="321.9" width="2.8" height="0.4"/><rect class="cls-30" x="399.9" y="322.3" width="2.8" height="0.1"/><polygon class="cls-23" points="402.7 321.6 402.7 321.9 399.9 321.9 399.9 325.2 399.4 325.2 399.4 321.6 402.7 321.6"/><polygon class="cls-23" points="402.7 321.6 402.7 321.9 399.9 321.9 399.4 321.6 402.7 321.6"/><rect class="cls-25" x="401.1" y="321.9" width="0.1" height="3.3"/><rect class="cls-21" x="403.4" y="321.6" width="3.2" height="3.5"/><polygon class="cls-23" points="406.6 321.6 406.6 321.9 403.8 321.9 403.8 325.2 403.4 325.2 403.4 321.6 406.6 321.6"/><polygon class="cls-23" points="406.6 321.6 406.6 321.9 403.8 321.9 403.4 321.6 406.6 321.6"/><rect class="cls-25" x="405" y="321.9" width="0.1" height="3.3"/><path class="cls-30" d="M402,324.1h0c.1.1.1,0,.1,0V324H402Z"/><path class="cls-30" d="M406.2,323.6h.1v-.2h0a.1.1,0,0,0-.1.1Z"/><rect class="cls-16" x="377.3" y="304.4" width="2.1" height="4.4"/><polygon class="cls-3" points="379.4 308.8 379.7 308.4 379.7 304.4 379.4 304.4 379.4 308.8"/><rect class="cls-17" x="367.3" y="315.8" width="20.5" height="13.1"/><polygon class="cls-18" points="387.8 317.7 367.3 317.7 367.3 315.8 387.8 315.8 387.8 317.7"/><polygon class="cls-19" points="381 316.9 403 316.9 395.4 305.8 373.4 305.8 381 316.9"/><polygon class="cls-20" points="375.1 305.8 394.2 305.8 401.8 316.9 401.8 328.9 387.8 328.9 387.8 316.9 382.8 316.9 375.1 305.8"/><rect class="cls-3" x="393.2" y="311.5" width="3.3" height="3.8"/><rect class="cls-3" x="392.5" y="322.1" width="4.5" height="6.8"/><rect class="cls-21" x="393.9" y="312.1" width="1.9" height="2.4"/><rect class="cls-22" x="393.3" y="322.9" width="3.1" height="6"/><polygon class="cls-23" points="393.9 312.1 393.9 312.4 395.3 312.4 395.3 314.5 395.8 314.5 395.8 312.1 393.9 312.1"/><polygon class="cls-23" points="393.9 312.1 393.9 312.4 395.3 312.4 395.8 312.1 393.9 312.1"/><polygon class="cls-23" points="393.3 322.9 393.3 323.2 395.9 323.2 395.9 328.9 396.4 328.9 396.4 322.9 393.3 322.9"/><polygon class="cls-23" points="393.3 322.9 393.3 323.2 395.9 323.2 396.4 322.9 393.3 322.9"/><polygon class="cls-24" points="395.4 305.8 395.2 305.8 402.8 316.9 403 316.9 395.4 305.8"/><polygon class="cls-24" points="387.8 316.9 365.7 316.9 373.3 305.8 395.4 305.8 387.8 316.9"/><rect class="cls-19" x="365.7" y="316.9" width="22.1" height="0.3"/><rect class="cls-25" x="394.5" y="312.4" width="0.2" height="2.1"/><rect class="cls-25" x="394.1" y="324.2" width="1.1" height="0.1"/><rect class="cls-26" x="377.1" y="304" width="2.8" height="0.5"/><rect class="cls-27" x="379.5" y="304" width="0.4" height="0.5"/><rect class="cls-28" x="370.2" y="319.6" width="14.5" height="5.7"/><rect class="cls-21" x="370.8" y="320.3" width="3.8" height="4.2"/><polygon class="cls-23" points="374.7 320.3 374.7 320.6 371.3 320.6 371.3 324.5 370.8 324.5 370.8 320.3 374.7 320.3"/><polygon class="cls-23" points="374.7 320.3 374.7 320.6 371.3 320.6 370.8 320.3 374.7 320.3"/><rect class="cls-25" x="372.7" y="320.6" width="0.1" height="3.9"/><rect class="cls-21" x="375.5" y="320.3" width="3.8" height="4.2"/><rect class="cls-29" x="376" y="320.6" width="3.3" height="0.5"/><rect class="cls-30" x="376" y="321.1" width="3.3" height="0.1"/><polygon class="cls-23" points="379.4 320.3 379.4 320.6 376 320.6 376 324.5 375.5 324.5 375.5 320.3 379.4 320.3"/><polygon class="cls-23" points="379.4 320.3 379.4 320.6 376 320.6 375.5 320.3 379.4 320.3"/><rect class="cls-25" x="377.4" y="320.6" width="0.2" height="3.9"/><rect class="cls-21" x="380.2" y="320.3" width="3.8" height="4.2"/><polygon class="cls-23" points="384 320.3 384 320.6 380.7 320.6 380.7 324.5 380.2 324.5 380.2 320.3 384 320.3"/><polygon class="cls-23" points="384 320.3 384 320.6 380.7 320.6 380.2 320.3 384 320.3"/><rect class="cls-25" x="382.1" y="320.6" width="0.2" height="3.9"/><path class="cls-30" d="M378.5,323.2h0c.1.1.1,0,.1,0v-.1a.1.1,0,0,0-.1-.1h0a.1.1,0,0,0-.1.1v.1Z"/><path class="cls-30" d="M383.6,322.6h0c.1.1.1,0,.1,0v-.1a.1.1,0,0,0-.1-.1h0a.1.1,0,0,0-.1.1v.1Z"/><rect class="cls-16" x="405.4" y="224.6" width="1.1" height="2.2"/><polygon class="cls-3" points="406.4 226.8 406.6 226.6 406.6 224.6 406.4 224.6 406.4 226.8"/><rect class="cls-17" x="400.3" y="230.4" width="10.5" height="6.7"/><polygon class="cls-18" points="410.7 231.4 400.3 231.4 400.3 230.4 410.7 230.4 410.7 231.4"/><polygon class="cls-19" points="407.3 230.9 418.5 230.9 414.6 225.3 403.4 225.3 407.3 230.9"/><polygon class="cls-20" points="404.3 225.3 414 225.3 417.9 230.9 417.9 237.1 410.7 237.1 410.7 230.9 408.2 230.9 404.3 225.3"/><rect class="cls-3" x="413.5" y="228.2" width="1.7" height="1.9"/><rect class="cls-3" x="413.2" y="233.6" width="2.3" height="3.5"/><rect class="cls-21" x="413.9" y="228.5" width="1" height="1.3"/><rect class="cls-22" x="413.6" y="234" width="1.6" height="3.1"/><polygon class="cls-23" points="413.9 228.5 413.9 228.7 414.6 228.7 414.6 229.7 414.9 229.7 414.9 228.5 413.9 228.5"/><polygon class="cls-23" points="413.9 228.5 413.9 228.7 414.6 228.7 414.9 228.5 413.9 228.5"/><polygon class="cls-23" points="413.6 234 413.6 234.2 414.9 234.2 414.9 237.1 415.2 237.1 415.2 234 413.6 234"/><polygon class="cls-23" points="413.6 234 413.6 234.2 414.9 234.2 415.2 234 413.6 234"/><polygon class="cls-24" points="414.6 225.3 414.5 225.3 418.4 230.9 418.5 230.9 414.6 225.3"/><polygon class="cls-24" points="410.7 230.9 399.5 230.9 403.4 225.3 414.6 225.3 410.7 230.9"/><rect class="cls-19" x="399.5" y="230.9" width="11.3" height="0.2"/><rect class="cls-25" x="414.2" y="228.7" width="0.1" height="1.1"/><rect class="cls-25" x="414" y="234.7" width="0.6" height="0.1"/><rect class="cls-26" x="405.3" y="224.3" width="1.5" height="0.2"/><rect class="cls-27" x="406.5" y="224.3" width="0.2" height="0.2"/><rect class="cls-28" x="401.8" y="232.3" width="7.4" height="2.9"/><rect class="cls-21" x="402.1" y="232.7" width="2" height="2.1"/><polygon class="cls-23" points="404 232.7 404 232.8 402.3 232.8 402.3 234.8 402.1 234.8 402.1 232.7 404 232.7"/><polygon class="cls-23" points="404 232.7 404 232.8 402.3 232.8 402.1 232.7 404 232.7"/><rect class="cls-25" x="403" y="232.8" width="0.1" height="2"/><rect class="cls-21" x="404.5" y="232.7" width="2" height="2.1"/><rect class="cls-29" x="404.7" y="232.8" width="1.7" height="0.3"/><rect class="cls-30" x="404.7" y="233.1" width="1.7" height="0.1"/><polygon class="cls-23" points="406.4 232.7 406.4 232.8 404.7 232.8 404.7 234.8 404.5 234.8 404.5 232.7 406.4 232.7"/><polygon class="cls-23" points="406.4 232.7 406.4 232.8 404.7 232.8 404.5 232.7 406.4 232.7"/><rect class="cls-25" x="405.4" y="232.8" width="0.1" height="2"/><rect class="cls-21" x="406.9" y="232.7" width="2" height="2.1"/><polygon class="cls-23" points="408.8 232.7 408.8 232.8 407.1 232.8 407.1 234.8 406.9 234.8 406.9 232.7 408.8 232.7"/><polygon class="cls-23" points="408.8 232.7 408.8 232.8 407.1 232.8 406.9 232.7 408.8 232.7"/><rect class="cls-25" x="407.8" y="232.8" width="0.1" height="2"/><path class="cls-30" d="M406,234.2Z"/><polygon class="cls-31" points="387.3 237.1 387.2 237.1 387.2 237.1 387.2 237.1 387.2 237.1 387.2 237.1 387.2 237.1 387.2 237.1 387.2 237.1 387.2 237.2 387.2 237.2 387.2 237.1 387.3 237.1"/><rect class="cls-16" x="391.1" y="222.3" width="1.3" height="2.6"/><polygon class="cls-3" points="392.3 224.9 392.5 224.7 392.5 222.3 392.3 222.3 392.3 224.9"/><rect class="cls-17" x="385.1" y="229.2" width="12.4" height="7.9"/><polygon class="cls-18" points="397.4 230.3 385.1 230.3 385.1 229.2 397.4 229.2 397.4 230.3"/><polygon class="cls-19" points="393.3 229.8 406.6 229.8 402 223.1 388.7 223.1 393.3 229.8"/><polygon class="cls-20" points="389.8 223.1 401.3 223.1 405.9 229.8 405.9 237.1 397.4 237.1 397.4 229.8 394.4 229.8 389.8 223.1"/><rect class="cls-3" x="400.7" y="226.5" width="2" height="2.3"/><rect class="cls-3" x="400.3" y="233" width="2.7" height="4.1"/><rect class="cls-21" x="401.1" y="226.9" width="1.2" height="1.5"/><rect class="cls-22" x="400.8" y="233.4" width="1.9" height="3.6"/><polygon class="cls-23" points="401.1 226.9 401.1 227.1 402 227.1 402 228.4 402.3 228.4 402.3 226.9 401.1 226.9"/><polygon class="cls-23" points="401.1 226.9 401.1 227.1 402 227.1 402.3 226.9 401.1 226.9"/><polygon class="cls-23" points="400.8 233.4 400.8 233.6 402.4 233.6 402.4 237.1 402.7 237.1 402.7 233.4 400.8 233.4"/><polygon class="cls-23" points="400.8 233.4 400.8 233.6 402.4 233.6 402.7 233.4 400.8 233.4"/><polygon class="cls-24" points="402 223.1 401.9 223.1 406.5 229.8 406.6 229.8 402 223.1"/><polygon class="cls-24" points="397.4 229.8 384.1 229.8 388.7 223.1 402 223.1 397.4 229.8"/><rect class="cls-19" x="384.1" y="229.8" width="13.3" height="0.2"/><rect class="cls-25" x="401.5" y="227.1" width="0.1" height="1.3"/><rect class="cls-25" x="401.2" y="234.2" width="0.7" height="0.1"/><rect class="cls-26" x="391" y="222" width="1.7" height="0.3"/><rect class="cls-27" x="392.4" y="222" width="0.2" height="0.3"/><rect class="cls-28" x="386.8" y="231.4" width="8.8" height="3.4"/><rect class="cls-21" x="387.2" y="231.9" width="2.3" height="2.5"/><polygon class="cls-23" points="389.5 231.9 389.5 232.1 387.5 232.1 387.5 234.4 387.2 234.4 387.2 231.9 389.5 231.9"/><polygon class="cls-23" points="389.5 231.9 389.5 232.1 387.5 232.1 387.2 231.9 389.5 231.9"/><rect class="cls-25" x="388.3" y="232.1" width="0.1" height="2.3"/><rect class="cls-21" x="390" y="231.9" width="2.3" height="2.5"/><rect class="cls-29" x="390.3" y="232.1" width="2" height="0.3"/><rect class="cls-30" x="390.3" y="232.4" width="2" height="0.1"/><polygon class="cls-23" points="392.3 231.9 392.3 232.1 390.3 232.1 390.3 234.4 390 234.4 390 231.9 392.3 231.9"/><polygon class="cls-23" points="392.3 231.9 392.3 232.1 390.3 232.1 390 231.9 392.3 231.9"/><rect class="cls-25" x="391.2" y="232.1" width="0.1" height="2.3"/><rect class="cls-21" x="392.9" y="231.9" width="2.3" height="2.5"/><polygon class="cls-23" points="395.2 231.9 395.2 232.1 393.2 232.1 393.2 234.4 392.9 234.4 392.9 231.9 395.2 231.9"/><polygon class="cls-23" points="395.2 231.9 395.2 232.1 393.2 232.1 392.9 231.9 395.2 231.9"/><rect class="cls-25" x="394" y="232.1" width="0.1" height="2.3"/><path class="cls-30" d="M391.8,233.6h0c.1.1.1,0,0,0h0c.1-.1.1-.1,0-.1h0c.1,0,0,0,0,.1Z"/><path class="cls-30" d="M394.9,233.3h0c.1-.1.1-.1,0-.1h0v.1Z"/><rect class="cls-32" x="206.2" y="326.7" width="5.1" height="11.8"/><rect class="cls-32" x="207" y="319" width="3.5" height="8.2"/><rect class="cls-33" x="210.2" y="327.4" width="0.4" height="0.9"/><rect class="cls-33" x="209.4" y="327.4" width="0.4" height="0.9"/><rect class="cls-33" x="208.6" y="327.4" width="0.4" height="0.9"/><rect class="cls-33" x="207.7" y="327.4" width="0.4" height="0.9"/><rect class="cls-33" x="206.9" y="327.4" width="0.4" height="0.9"/><rect class="cls-33" x="210.2" y="328.7" width="0.4" height="0.9"/><rect class="cls-33" x="209.4" y="328.7" width="0.4" height="0.9"/><rect class="cls-33" x="208.6" y="328.7" width="0.4" height="0.9"/><rect class="cls-33" x="207.7" y="328.7" width="0.4" height="0.9"/><rect class="cls-33" x="206.9" y="328.7" width="0.4" height="0.9"/><rect class="cls-33" x="210.2" y="330" width="0.4" height="1"/><rect class="cls-33" x="209.4" y="330" width="0.4" height="1"/><rect class="cls-33" x="208.6" y="330" width="0.4" height="1"/><rect class="cls-33" x="207.7" y="330" width="0.4" height="1"/><rect class="cls-33" x="206.9" y="330" width="0.4" height="1"/><rect class="cls-33" x="210.2" y="331.3" width="0.4" height="0.9"/><rect class="cls-33" x="209.4" y="331.3" width="0.4" height="0.9"/><rect class="cls-33" x="208.6" y="331.3" width="0.4" height="0.9"/><rect class="cls-33" x="207.7" y="331.3" width="0.4" height="0.9"/><rect class="cls-33" x="206.9" y="331.3" width="0.4" height="0.9"/><rect class="cls-33" x="210.2" y="332.6" width="0.4" height="1"/><rect class="cls-33" x="209.4" y="332.6" width="0.4" height="1"/><rect class="cls-33" x="208.6" y="332.6" width="0.4" height="1"/><rect class="cls-33" x="207.7" y="332.6" width="0.4" height="1"/><rect class="cls-33" x="206.9" y="332.6" width="0.4" height="1"/><rect class="cls-33" x="210.2" y="333.9" width="0.4" height="1"/><rect class="cls-33" x="209.4" y="333.9" width="0.4" height="1"/><rect class="cls-33" x="208.6" y="333.9" width="0.4" height="1"/><rect class="cls-33" x="207.7" y="333.9" width="0.4" height="1"/><rect class="cls-33" x="206.9" y="333.9" width="0.4" height="1"/><rect class="cls-33" x="210.2" y="335.3" width="0.4" height="0.9"/><rect class="cls-33" x="209.4" y="335.3" width="0.4" height="0.9"/><rect class="cls-33" x="208.6" y="335.3" width="0.4" height="0.9"/><rect class="cls-33" x="207.7" y="335.3" width="0.4" height="0.9"/><rect class="cls-33" x="206.9" y="335.3" width="0.4" height="0.9"/><rect class="cls-33" x="209.4" y="319.9" width="0.4" height="1"/><rect class="cls-33" x="208.6" y="319.9" width="0.4" height="1"/><rect class="cls-33" x="207.7" y="319.9" width="0.4" height="1"/><rect class="cls-33" x="209.4" y="321.2" width="0.4" height="0.9"/><rect class="cls-33" x="208.6" y="321.2" width="0.4" height="0.9"/><rect class="cls-33" x="207.7" y="321.2" width="0.4" height="0.9"/><rect class="cls-33" x="209.4" y="322.5" width="0.4" height="0.9"/><rect class="cls-33" x="208.6" y="322.5" width="0.4" height="0.9"/><rect class="cls-33" x="207.7" y="322.5" width="0.4" height="0.9"/><rect class="cls-33" x="209.4" y="323.8" width="0.4" height="1"/><rect class="cls-33" x="208.6" y="323.8" width="0.4" height="1"/><rect class="cls-33" x="207.7" y="323.8" width="0.4" height="1"/><rect class="cls-33" x="209.4" y="325.1" width="0.4" height="1"/><rect class="cls-33" x="208.6" y="325.1" width="0.4" height="1"/><rect class="cls-33" x="207.7" y="325.1" width="0.4" height="1"/><polygon class="cls-11" points="207 326.7 207 319 207.8 319 209.1 338.5 206.2 338.5 206.2 326.7 207 326.7"/><rect class="cls-32" x="222.2" y="316.8" width="9.1" height="21.2"/><rect class="cls-32" x="223.6" y="302.9" width="6.3" height="14.7"/><rect class="cls-32" x="226.1" y="296.2" width="1.3" height="7.8"/><rect class="cls-33" x="229.3" y="318.1" width="0.7" height="1.7"/><rect class="cls-33" x="227.9" y="318.1" width="0.7" height="1.7"/><rect class="cls-33" x="226.4" y="318.1" width="0.7" height="1.7"/><rect class="cls-33" x="224.9" y="318.1" width="0.7" height="1.7"/><rect class="cls-33" x="223.5" y="318.1" width="0.7" height="1.7"/><rect class="cls-33" x="229.3" y="320.4" width="0.7" height="1.7"/><rect class="cls-33" x="227.9" y="320.4" width="0.7" height="1.7"/><rect class="cls-33" x="226.4" y="320.4" width="0.7" height="1.7"/><rect class="cls-33" x="224.9" y="320.4" width="0.7" height="1.7"/><rect class="cls-33" x="223.5" y="320.4" width="0.7" height="1.7"/><rect class="cls-33" x="229.3" y="322.8" width="0.7" height="1.7"/><rect class="cls-33" x="227.9" y="322.8" width="0.7" height="1.7"/><rect class="cls-33" x="226.4" y="322.8" width="0.7" height="1.7"/><rect class="cls-33" x="224.9" y="322.8" width="0.7" height="1.7"/><rect class="cls-33" x="223.5" y="322.8" width="0.7" height="1.7"/><rect class="cls-33" x="229.3" y="325.1" width="0.7" height="1.7"/><rect class="cls-33" x="227.9" y="325.1" width="0.7" height="1.7"/><rect class="cls-33" x="226.4" y="325.1" width="0.7" height="1.7"/><rect class="cls-33" x="224.9" y="325.1" width="0.7" height="1.7"/><rect class="cls-33" x="223.5" y="325.1" width="0.7" height="1.7"/><rect class="cls-33" x="229.3" y="327.4" width="0.7" height="1.7"/><rect class="cls-33" x="227.9" y="327.4" width="0.7" height="1.7"/><rect class="cls-33" x="226.4" y="327.4" width="0.7" height="1.7"/><rect class="cls-33" x="224.9" y="327.4" width="0.7" height="1.7"/><rect class="cls-33" x="223.5" y="327.4" width="0.7" height="1.7"/><rect class="cls-33" x="229.3" y="329.8" width="0.7" height="1.7"/><rect class="cls-33" x="227.9" y="329.8" width="0.7" height="1.7"/><rect class="cls-33" x="226.4" y="329.8" width="0.7" height="1.7"/><rect class="cls-33" x="224.9" y="329.8" width="0.7" height="1.7"/><rect class="cls-33" x="223.5" y="329.8" width="0.7" height="1.7"/><rect class="cls-33" x="229.3" y="332.1" width="0.7" height="1.7"/><rect class="cls-33" x="227.9" y="332.1" width="0.7" height="1.7"/><rect class="cls-33" x="226.4" y="332.1" width="0.7" height="1.7"/><rect class="cls-33" x="224.9" y="332.1" width="0.7" height="1.7"/><rect class="cls-33" x="223.5" y="332.1" width="0.7" height="1.7"/><rect class="cls-33" x="227.9" y="304.6" width="0.7" height="1.7"/><rect class="cls-33" x="226.4" y="304.6" width="0.7" height="1.7"/><rect class="cls-33" x="224.9" y="304.6" width="0.7" height="1.7"/><rect class="cls-33" x="227.9" y="307" width="0.7" height="1.7"/><rect class="cls-33" x="226.4" y="307" width="0.7" height="1.7"/><rect class="cls-33" x="224.9" y="307" width="0.7" height="1.7"/><rect class="cls-33" x="227.9" y="309.3" width="0.7" height="1.7"/><rect class="cls-33" x="226.4" y="309.3" width="0.7" height="1.7"/><rect class="cls-33" x="224.9" y="309.3" width="0.7" height="1.7"/><rect class="cls-33" x="227.9" y="311.6" width="0.7" height="1.7"/><rect class="cls-33" x="226.4" y="311.6" width="0.7" height="1.7"/><rect class="cls-33" x="224.9" y="311.6" width="0.7" height="1.7"/><rect class="cls-33" x="227.9" y="314" width="0.7" height="1.7"/><rect class="cls-33" x="226.4" y="314" width="0.7" height="1.7"/><rect class="cls-33" x="224.9" y="314" width="0.7" height="1.7"/><polygon class="cls-11" points="223.6 316.8 223.6 302.9 225 302.9 227.5 338 222.2 338 222.2 316.8 223.6 316.8"/><rect class="cls-34" x="239.8" y="311.1" width="11.6" height="26.9"/><rect class="cls-34" x="241.6" y="293.5" width="8" height="18.6"/><rect class="cls-33" x="248.9" y="312.7" width="0.9" height="2.2"/><rect class="cls-33" x="247" y="312.7" width="0.9" height="2.2"/><rect class="cls-33" x="245.2" y="312.7" width="0.9" height="2.2"/><rect class="cls-33" x="243.3" y="312.7" width="0.9" height="2.2"/><rect class="cls-33" x="241.4" y="312.7" width="0.9" height="2.2"/><rect class="cls-33" x="248.9" y="315.7" width="0.9" height="2.2"/><rect class="cls-33" x="247" y="315.7" width="0.9" height="2.2"/><rect class="cls-33" x="245.2" y="315.7" width="0.9" height="2.2"/><rect class="cls-33" x="243.3" y="315.7" width="0.9" height="2.2"/><rect class="cls-33" x="241.4" y="315.7" width="0.9" height="2.2"/><rect class="cls-33" x="248.9" y="318.7" width="0.9" height="2.2"/><rect class="cls-33" x="247" y="318.7" width="0.9" height="2.2"/><rect class="cls-33" x="245.2" y="318.7" width="0.9" height="2.2"/><rect class="cls-33" x="243.3" y="318.7" width="0.9" height="2.2"/><rect class="cls-33" x="241.4" y="318.7" width="0.9" height="2.2"/><rect class="cls-33" x="248.9" y="321.6" width="0.9" height="2.2"/><rect class="cls-33" x="247" y="321.6" width="0.9" height="2.2"/><rect class="cls-33" x="245.2" y="321.6" width="0.9" height="2.2"/><rect class="cls-33" x="243.3" y="321.6" width="0.9" height="2.2"/><rect class="cls-33" x="241.4" y="321.6" width="0.9" height="2.2"/><rect class="cls-33" x="248.9" y="324.6" width="0.9" height="2.2"/><rect class="cls-33" x="247" y="324.6" width="0.9" height="2.2"/><rect class="cls-33" x="245.2" y="324.6" width="0.9" height="2.2"/><rect class="cls-33" x="243.3" y="324.6" width="0.9" height="2.2"/><rect class="cls-33" x="241.4" y="324.6" width="0.9" height="2.2"/><rect class="cls-33" x="248.9" y="327.6" width="0.9" height="2.2"/><rect class="cls-33" x="247" y="327.6" width="0.9" height="2.2"/><rect class="cls-33" x="245.2" y="327.6" width="0.9" height="2.2"/><rect class="cls-33" x="243.3" y="327.6" width="0.9" height="2.2"/><rect class="cls-33" x="241.4" y="327.6" width="0.9" height="2.2"/><rect class="cls-33" x="248.9" y="330.6" width="0.9" height="2.2"/><rect class="cls-33" x="247" y="330.6" width="0.9" height="2.2"/><rect class="cls-33" x="245.2" y="330.6" width="0.9" height="2.2"/><rect class="cls-33" x="243.3" y="330.6" width="0.9" height="2.2"/><rect class="cls-33" x="241.4" y="330.6" width="0.9" height="2.2"/><rect class="cls-33" x="247" y="295.7" width="0.9" height="2.2"/><rect class="cls-33" x="245.2" y="295.7" width="0.9" height="2.2"/><rect class="cls-33" x="243.3" y="295.7" width="0.9" height="2.2"/><rect class="cls-33" x="247" y="298.6" width="0.9" height="2.2"/><rect class="cls-33" x="245.2" y="298.6" width="0.9" height="2.2"/><rect class="cls-33" x="243.3" y="298.6" width="0.9" height="2.2"/><rect class="cls-33" x="247" y="301.6" width="0.9" height="2.2"/><rect class="cls-33" x="245.2" y="301.6" width="0.9" height="2.2"/><rect class="cls-33" x="243.3" y="301.6" width="0.9" height="2.2"/><rect class="cls-33" x="247" y="304.6" width="0.9" height="2.2"/><rect class="cls-33" x="245.2" y="304.6" width="0.9" height="2.2"/><rect class="cls-33" x="243.3" y="304.6" width="0.9" height="2.2"/><rect class="cls-33" x="247" y="307.5" width="0.9" height="2.2"/><rect class="cls-33" x="245.2" y="307.5" width="0.9" height="2.2"/><rect class="cls-33" x="243.3" y="307.5" width="0.9" height="2.2"/><polygon class="cls-11" points="241.6 311.1 241.6 293.5 243.4 293.5 246.5 338 239.8 338 239.8 311.1 241.6 311.1"/><rect class="cls-35" x="227.6" y="308.2" width="12.8" height="29.7"/><rect class="cls-35" x="229.6" y="288.8" width="8.9" height="20.6"/><rect class="cls-33" x="237.6" y="310.1" width="1" height="2.4"/><rect class="cls-33" x="235.6" y="310.1" width="1" height="2.4"/><rect class="cls-33" x="233.5" y="310.1" width="1" height="2.4"/><rect class="cls-33" x="231.5" y="310.1" width="1" height="2.4"/><rect class="cls-33" x="229.4" y="310.1" width="1" height="2.4"/><rect class="cls-33" x="237.6" y="313.3" width="1" height="2.4"/><rect class="cls-33" x="235.6" y="313.3" width="1" height="2.4"/><rect class="cls-33" x="233.5" y="313.3" width="1" height="2.4"/><rect class="cls-33" x="231.5" y="313.3" width="1" height="2.4"/><rect class="cls-33" x="229.4" y="313.3" width="1" height="2.4"/><rect class="cls-33" x="237.6" y="316.6" width="1" height="2.4"/><rect class="cls-33" x="235.6" y="316.6" width="1" height="2.4"/><rect class="cls-33" x="233.5" y="316.6" width="1" height="2.4"/><rect class="cls-33" x="231.5" y="316.6" width="1" height="2.4"/><rect class="cls-33" x="229.4" y="316.6" width="1" height="2.4"/><rect class="cls-33" x="237.6" y="319.9" width="1" height="2.4"/><rect class="cls-33" x="235.6" y="319.9" width="1" height="2.4"/><rect class="cls-33" x="233.5" y="319.9" width="1" height="2.4"/><rect class="cls-33" x="231.5" y="319.9" width="1" height="2.4"/><rect class="cls-33" x="229.4" y="319.9" width="1" height="2.4"/><rect class="cls-33" x="237.6" y="323.2" width="1" height="2.4"/><rect class="cls-33" x="235.6" y="323.2" width="1" height="2.4"/><rect class="cls-33" x="233.5" y="323.2" width="1" height="2.4"/><rect class="cls-33" x="231.5" y="323.2" width="1" height="2.4"/><rect class="cls-33" x="229.4" y="323.2" width="1" height="2.4"/><rect class="cls-33" x="237.6" y="326.5" width="1" height="2.4"/><rect class="cls-33" x="235.6" y="326.5" width="1" height="2.4"/><rect class="cls-33" x="233.5" y="326.5" width="1" height="2.4"/><rect class="cls-33" x="231.5" y="326.5" width="1" height="2.4"/><rect class="cls-33" x="229.4" y="326.5" width="1" height="2.4"/><rect class="cls-33" x="237.6" y="329.8" width="1" height="2.4"/><rect class="cls-33" x="235.6" y="329.8" width="1" height="2.4"/><rect class="cls-33" x="233.5" y="329.8" width="1" height="2.4"/><rect class="cls-33" x="231.5" y="329.8" width="1" height="2.4"/><rect class="cls-33" x="229.4" y="329.8" width="1" height="2.4"/><rect class="cls-33" x="235.6" y="291.2" width="1" height="2.4"/><rect class="cls-33" x="233.5" y="291.2" width="1" height="2.4"/><rect class="cls-33" x="231.5" y="291.2" width="1" height="2.4"/><rect class="cls-33" x="235.6" y="294.5" width="1" height="2.4"/><rect class="cls-33" x="233.5" y="294.5" width="1" height="2.4"/><rect class="cls-33" x="231.5" y="294.5" width="1" height="2.4"/><rect class="cls-33" x="235.6" y="297.7" width="1" height="2.4"/><rect class="cls-33" x="233.5" y="297.7" width="1" height="2.4"/><rect class="cls-33" x="231.5" y="297.7" width="1" height="2.4"/><rect class="cls-33" x="235.6" y="301" width="1" height="2.4"/><rect class="cls-33" x="233.5" y="301" width="1" height="2.4"/><rect class="cls-33" x="231.5" y="301" width="1" height="2.4"/><rect class="cls-33" x="235.6" y="304.3" width="1" height="2.4"/><rect class="cls-33" x="233.5" y="304.3" width="1" height="2.4"/><rect class="cls-33" x="231.5" y="304.3" width="1" height="2.4"/><polygon class="cls-36" points="229.6 308.2 229.6 288.8 231.6 288.8 235 338 227.6 338 227.6 308.2 229.6 308.2"/><rect class="cls-37" x="252.5" y="315.7" width="9.6" height="22.3"/><rect class="cls-37" x="254" y="301.2" width="6.6" height="15.4"/><rect class="cls-37" x="256.5" y="299.1" width="1.6" height="5.9"/><rect class="cls-33" x="260" y="317.1" width="0.8" height="1.8"/><rect class="cls-33" x="258.5" y="317.1" width="0.8" height="1.8"/><rect class="cls-33" x="256.9" y="317.1" width="0.8" height="1.8"/><rect class="cls-33" x="255.4" y="317.1" width="0.8" height="1.8"/><rect class="cls-33" x="253.8" y="317.1" width="0.8" height="1.8"/><rect class="cls-33" x="260" y="319.5" width="0.8" height="1.8"/><rect class="cls-33" x="258.5" y="319.5" width="0.8" height="1.8"/><rect class="cls-33" x="256.9" y="319.5" width="0.8" height="1.8"/><rect class="cls-33" x="255.4" y="319.5" width="0.8" height="1.8"/><rect class="cls-33" x="253.8" y="319.5" width="0.8" height="1.8"/><rect class="cls-33" x="260" y="322" width="0.8" height="1.8"/><rect class="cls-33" x="258.5" y="322" width="0.8" height="1.8"/><rect class="cls-33" x="256.9" y="322" width="0.8" height="1.8"/><rect class="cls-33" x="255.4" y="322" width="0.8" height="1.8"/><rect class="cls-33" x="253.8" y="322" width="0.8" height="1.8"/><rect class="cls-33" x="260" y="324.5" width="0.8" height="1.8"/><rect class="cls-33" x="258.5" y="324.5" width="0.8" height="1.8"/><rect class="cls-33" x="256.9" y="324.5" width="0.8" height="1.8"/><rect class="cls-33" x="255.4" y="324.5" width="0.8" height="1.8"/><rect class="cls-33" x="253.8" y="324.5" width="0.8" height="1.8"/><rect class="cls-33" x="260" y="326.9" width="0.8" height="1.8"/><rect class="cls-33" x="258.5" y="326.9" width="0.8" height="1.8"/><rect class="cls-33" x="256.9" y="326.9" width="0.8" height="1.8"/><rect class="cls-33" x="255.4" y="326.9" width="0.8" height="1.8"/><rect class="cls-33" x="253.8" y="326.9" width="0.8" height="1.8"/><rect class="cls-33" x="260" y="329.4" width="0.8" height="1.8"/><rect class="cls-33" x="258.5" y="329.4" width="0.8" height="1.8"/><rect class="cls-33" x="256.9" y="329.4" width="0.8" height="1.8"/><rect class="cls-33" x="255.4" y="329.4" width="0.8" height="1.8"/><rect class="cls-33" x="253.8" y="329.4" width="0.8" height="1.8"/><rect class="cls-33" x="260" y="331.8" width="0.8" height="1.8"/><rect class="cls-33" x="258.5" y="331.8" width="0.8" height="1.8"/><rect class="cls-33" x="256.9" y="331.8" width="0.8" height="1.8"/><rect class="cls-33" x="255.4" y="331.8" width="0.8" height="1.8"/><rect class="cls-33" x="253.8" y="331.8" width="0.8" height="1.8"/><rect class="cls-33" x="258.5" y="303" width="0.8" height="1.8"/><rect class="cls-33" x="256.9" y="303" width="0.8" height="1.8"/><rect class="cls-33" x="255.4" y="303" width="0.8" height="1.8"/><rect class="cls-33" x="258.5" y="305.4" width="0.8" height="1.8"/><rect class="cls-33" x="256.9" y="305.4" width="0.8" height="1.8"/><rect class="cls-33" x="255.4" y="305.4" width="0.8" height="1.8"/><rect class="cls-33" x="258.5" y="307.9" width="0.8" height="1.8"/><rect class="cls-33" x="256.9" y="307.9" width="0.8" height="1.8"/><rect class="cls-33" x="255.4" y="307.9" width="0.8" height="1.8"/><rect class="cls-33" x="258.5" y="310.3" width="0.8" height="1.8"/><rect class="cls-33" x="256.9" y="310.3" width="0.8" height="1.8"/><rect class="cls-33" x="255.4" y="310.3" width="0.8" height="1.8"/><rect class="cls-33" x="258.5" y="312.8" width="0.8" height="1.8"/><rect class="cls-33" x="256.9" y="312.8" width="0.8" height="1.8"/><rect class="cls-33" x="255.4" y="312.8" width="0.8" height="1.8"/><polygon class="cls-38" points="254 315.7 254 301.2 255.5 301.2 258.1 338 252.5 338 252.5 315.7 254 315.7"/><rect class="cls-39" x="211.1" y="309.1" width="12.5" height="28.9"/><rect class="cls-39" x="213" y="290.2" width="8.6" height="20"/><rect class="cls-39" x="215.6" y="285.8" width="3.3" height="4.9"/><rect class="cls-33" x="220.8" y="310.9" width="1" height="2.3"/><rect class="cls-33" x="218.8" y="310.9" width="1" height="2.3"/><rect class="cls-33" x="216.8" y="310.9" width="1" height="2.3"/><rect class="cls-33" x="214.8" y="310.9" width="1" height="2.3"/><rect class="cls-33" x="212.8" y="310.9" width="1" height="2.3"/><rect class="cls-33" x="220.8" y="314" width="1" height="2.3"/><rect class="cls-33" x="218.8" y="314" width="1" height="2.3"/><rect class="cls-33" x="216.8" y="314" width="1" height="2.3"/><rect class="cls-33" x="214.8" y="314" width="1" height="2.3"/><rect class="cls-33" x="212.8" y="314" width="1" height="2.3"/><rect class="cls-33" x="220.8" y="317.2" width="1" height="2.3"/><rect class="cls-33" x="218.8" y="317.2" width="1" height="2.3"/><rect class="cls-33" x="216.8" y="317.2" width="1" height="2.3"/><rect class="cls-33" x="214.8" y="317.2" width="1" height="2.3"/><rect class="cls-33" x="212.8" y="317.2" width="1" height="2.3"/><rect class="cls-33" x="220.8" y="320.4" width="1" height="2.3"/><rect class="cls-33" x="218.8" y="320.4" width="1" height="2.3"/><rect class="cls-33" x="216.8" y="320.4" width="1" height="2.3"/><rect class="cls-33" x="214.8" y="320.4" width="1" height="2.3"/><rect class="cls-33" x="212.8" y="320.4" width="1" height="2.3"/><rect class="cls-33" x="220.8" y="323.6" width="1" height="2.3"/><rect class="cls-33" x="218.8" y="323.6" width="1" height="2.3"/><rect class="cls-33" x="216.8" y="323.6" width="1" height="2.3"/><rect class="cls-33" x="214.8" y="323.6" width="1" height="2.3"/><rect class="cls-33" x="212.8" y="323.6" width="1" height="2.3"/><rect class="cls-33" x="220.8" y="326.8" width="1" height="2.3"/><rect class="cls-33" x="218.8" y="326.8" width="1" height="2.3"/><rect class="cls-33" x="216.8" y="326.8" width="1" height="2.3"/><rect class="cls-33" x="214.8" y="326.8" width="1" height="2.3"/><rect class="cls-33" x="212.8" y="326.8" width="1" height="2.3"/><rect class="cls-33" x="220.8" y="330" width="1" height="2.3"/><rect class="cls-33" x="218.8" y="330" width="1" height="2.3"/><rect class="cls-33" x="216.8" y="330" width="1" height="2.3"/><rect class="cls-33" x="214.8" y="330" width="1" height="2.3"/><rect class="cls-33" x="212.8" y="330" width="1" height="2.3"/><rect class="cls-33" x="218.8" y="292.5" width="1" height="2.3"/><rect class="cls-33" x="216.8" y="292.5" width="1" height="2.3"/><rect class="cls-33" x="214.8" y="292.5" width="1" height="2.3"/><rect class="cls-33" x="218.8" y="295.7" width="1" height="2.3"/><rect class="cls-33" x="216.8" y="295.7" width="1" height="2.3"/><rect class="cls-33" x="214.8" y="295.7" width="1" height="2.3"/><rect class="cls-33" x="218.8" y="298.9" width="1" height="2.3"/><rect class="cls-33" x="216.8" y="298.9" width="1" height="2.3"/><rect class="cls-33" x="214.8" y="298.9" width="1" height="2.3"/><rect class="cls-33" x="218.8" y="302.1" width="1" height="2.3"/><rect class="cls-33" x="216.8" y="302.1" width="1" height="2.3"/><rect class="cls-33" x="214.8" y="302.1" width="1" height="2.3"/><rect class="cls-33" x="218.8" y="305.3" width="1" height="2.3"/><rect class="cls-33" x="216.8" y="305.3" width="1" height="2.3"/><rect class="cls-33" x="214.8" y="305.3" width="1" height="2.3"/><polygon class="cls-40" points="213 309.1 213 290.2 214.9 290.2 218.2 338 211.1 338 211.1 309.1 213 309.1"/></g><g id="items"><path class="cls-41" d="M431.1,249.8a2.3,2.3,0,1,0,2.3,2.3A2.33,2.33,0,0,0,431.1,249.8Zm0,3.6a1.3,1.3,0,1,1,1.3-1.3A1.32,1.32,0,0,1,431.1,253.4Z"/><path class="cls-41" d="M444.7,249.8a2.3,2.3,0,1,0,2.3,2.3A2.4,2.4,0,0,0,444.7,249.8Zm0,3.6a1.3,1.3,0,1,1,1.3-1.3A1.4,1.4,0,0,1,444.7,253.4Z"/><path class="cls-41" d="M450,248.4a1.61,1.61,0,0,0-.4-.7,5.44,5.44,0,0,0-2.2-.4l-.9-2.2a2.53,2.53,0,0,0-2.1-1.5h-8.1A2.74,2.74,0,0,0,434,245l-1.4,2.4a14.6,14.6,0,0,0-3.5.5,4.56,4.56,0,0,0-2.2,1.8.55.55,0,0,0-.6.4l-.2.8a.49.49,0,0,0,.3.6h0a.66.66,0,0,0-.4.5.47.47,0,0,0,.5.5h1.7V252a3,3,0,0,1,3-3,3,3,0,0,1,3,3v.5h7.7V252a3,3,0,0,1,6,0v.5h2a.54.54,0,0,0,.5-.5.76.76,0,0,0-.2-.5,6.05,6.05,0,0,0,.2-1.5.52.52,0,0,0,.2-.4v-.8C450.4,248.7,450.2,248.5,450,248.4Zm-5.6-4a2,2,0,0,1,1.6,1.1l.7,1.9h-.5c-1.6-.1-3.6-.1-5.7-.1l-.2-2.8h0l4.1-.1Zm-9.9,1a2.23,2.23,0,0,1,1.8-1h3.3l-.2,2.8c-2.1,0-4.1.1-5.9.2h-.2Z"/><path class="cls-41" d="M431.1,251.4a.7.7,0,1,0,.7.7A.68.68,0,0,0,431.1,251.4Z"/><path class="cls-41" d="M444.7,251.4a.7.7,0,1,0,.7.7A.68.68,0,0,0,444.7,251.4Z"/><path class="cls-41" d="M336.3,312.3a2.75,2.75,0,1,0,.8,3.8A2.68,2.68,0,0,0,336.3,312.3Zm-2.3,3.6a1.51,1.51,0,1,1,2.1-.4A1.69,1.69,0,0,1,334,315.9Z"/><path class="cls-41" d="M350,321.3a2.75,2.75,0,1,0,.8,3.8A2.83,2.83,0,0,0,350,321.3Zm-2.4,3.5a1.51,1.51,0,1,1,2.1-.4A1.46,1.46,0,0,1,347.6,324.8Z"/><path class="cls-41" d="M356.3,323.4a1.7,1.7,0,0,0,0-1,7.73,7.73,0,0,0-1.9-1.9l.6-2.7a3,3,0,0,0-1.2-2.9l-8.1-5.3a3.51,3.51,0,0,0-3.3-.2l-2.9,1.5a18.38,18.38,0,0,0-3.8-1.8,6,6,0,0,0-3.4.3.75.75,0,0,0-.9,0l-.7.6a.62.62,0,0,0-.1.8h0a.67.67,0,0,0-.8.3.65.65,0,0,0,.2.9l1.7,1.1.3-.6a3.61,3.61,0,0,1,6,4,1.76,1.76,0,0,1-.4.5l7.8,5.1.3-.6a3.65,3.65,0,0,1,5-1,3.55,3.55,0,0,1,1,4.9,1.76,1.76,0,0,1-.4.5l2,1.3h0a.65.65,0,0,0,.9-.2,1.27,1.27,0,0,0,.1-.6,15.38,15.38,0,0,0,1.2-1.3.55.55,0,0,0,.5-.3l.6-.8C356.4,323.9,356.4,323.6,356.3,323.4Zm-3-7.8a2.43,2.43,0,0,1,.9,2.1l-.5,2.4-.5-.4c-1.6-1.1-3.6-2.5-5.7-3.9l1.7-2.9h0Zm-10.6-5.5a3.1,3.1,0,0,1,2.5.1l3.3,2.2-2,2.7c-2.1-1.3-4.2-2.6-6.1-3.7l-.2-.1Z"/><path class="cls-41" d="M335.3,313.9a.86.86,0,1,0,.2,1.2A.83.83,0,0,0,335.3,313.9Z"/><path class="cls-41" d="M348.9,322.9a.86.86,0,1,0,.2,1.2A.82.82,0,0,0,348.9,322.9Z"/><path class="cls-41" d="M131.3,343.7a2.32,2.32,0,1,0,1.7-2.8A2.41,2.41,0,0,0,131.3,343.7Zm1.1-.3a1.18,1.18,0,0,1,.9-1.5,1.26,1.26,0,0,1,1.5.9,1.18,1.18,0,0,1-.9,1.5A1.15,1.15,0,0,1,132.4,343.4Z"/><path class="cls-41" d="M118.2,346.9a2.32,2.32,0,1,0,1.7-2.8A2.25,2.25,0,0,0,118.2,346.9Zm1-.3a1.18,1.18,0,0,1,.9-1.5,1.24,1.24,0,1,1,.6,2.4A1.15,1.15,0,0,1,119.2,346.6Z"/><path class="cls-41" d="M114.1,344.6l.2.8a.32.32,0,0,0,.3.3c.2.5.4,1,.6,1.4a.44.44,0,0,0-.1.5.55.55,0,0,0,.6.4h0l1.9-.5c-.1-.2-.1-.3-.2-.5a3,3,0,1,1,5.8-1.4c0,.2.1.3.1.5l7.5-1.8c-.1-.2-.1-.3-.2-.5a3,3,0,1,1,5.8-1.4c0,.2.1.3.1.5l1.6-.4a.57.57,0,0,0,.4-.7.51.51,0,0,0-.5-.4h0a.49.49,0,0,0,.1-.7l-.4-.7a.57.57,0,0,0-.7-.2,4.52,4.52,0,0,0-2.6-1.2,14.8,14.8,0,0,0-3.5.4l-1.9-2a3.15,3.15,0,0,0-2.6-.8l-7.8,1.9a2.52,2.52,0,0,0-1.7,1.9l-.3,2.3a7.8,7.8,0,0,0-2,.9,1.08,1.08,0,0,0-.2.8A.71.71,0,0,0,114.1,344.6Zm8.7-6.9h0l.5,2.8c-2,.5-4,1-5.5,1.4l-.5.2.3-2a1.85,1.85,0,0,1,1.3-1.4Zm7.5,1.4h-.2c-1.7.3-3.8.7-5.8,1.2l-.8-2.7,3.2-.8a2.13,2.13,0,0,1,2,.6Z"/><path class="cls-41" d="M133.4,342.4a.73.73,0,1,1-.5.9A.72.72,0,0,1,133.4,342.4Z"/><path class="cls-41" d="M120.2,345.6a.73.73,0,1,1-.5.9A.8.8,0,0,1,120.2,345.6Z"/><path class="cls-42" d="M465.9,287c-.5,1.2-4,.9-7.8-.7s-6.4-3.9-5.9-5.2,4-.9,7.8.7S466.5,285.8,465.9,287Z"/><path class="cls-43" d="M466.5,244.7l1.7-.9a22.78,22.78,0,0,1,2.3,8.2l1.8-5.1,1.8.6-.2.5a17.82,17.82,0,0,1,6.3-2.6l.3,1.9c-3.2.5-6.6,3-7.7,3.8l-11.7,32.7-1.8-.6,9.6-26.9C468.9,254.8,468.5,248.3,466.5,244.7Z"/><path class="cls-44" d="M459.4,228.3a4.48,4.48,0,0,1,5.4-2.8,10.55,10.55,0,0,1,.6-2.4,12.73,12.73,0,0,1,16.3-7.7,12.44,12.44,0,0,1,7.6,7.6,6.89,6.89,0,0,1,.8.3,10.42,10.42,0,0,1,6.3,13.4,9.62,9.62,0,0,1-3.7,4.9,6.51,6.51,0,0,1,.3,5.3,6.8,6.8,0,0,1-8.6,4.1,7,7,0,0,1-4-3.9,10.57,10.57,0,0,1-12.7-2.5,6.72,6.72,0,0,1-6.3.9,6.8,6.8,0,0,1-4.1-8.6,6.9,6.9,0,0,1,3.2-3.7A4.69,4.69,0,0,1,459.4,228.3Z"/><path class="cls-45" d="M459.4,228.3a4.48,4.48,0,0,1,5.4-2.8,10.55,10.55,0,0,1,.6-2.4,12.6,12.6,0,0,1,12.7-8.4,12.74,12.74,0,0,0,.3,23.4,11.88,11.88,0,0,0,2.3.7,4.48,4.48,0,0,0,2.6,5.5,4.63,4.63,0,0,0,4.9-.9,6.83,6.83,0,0,0,3.5,3.4,6.47,6.47,0,0,0,1.3.4,6.66,6.66,0,0,1-8.5,3.8,7,7,0,0,1-4-3.9,10.57,10.57,0,0,1-12.7-2.5,6.72,6.72,0,0,1-6.3.9,6.8,6.8,0,0,1-4.1-8.6,6.9,6.9,0,0,1,3.2-3.7A4.54,4.54,0,0,1,459.4,228.3Z"/><path class="cls-45" d="M487.6,223.4a5.28,5.28,0,0,0-4.3,2.6,5.35,5.35,0,0,0,1.9,7.2c.1,0,.1.1.2.1a5.55,5.55,0,0,1-2.8-.7,5.21,5.21,0,0,1-1.9-7.2A5.15,5.15,0,0,1,487.6,223.4Z"/><path class="cls-45" d="M490.1,240.5a3.25,3.25,0,0,0,.1-3.3,3.5,3.5,0,0,0-4.6-1.6.1.1,0,0,0-.1.1,3.53,3.53,0,0,1,1.4-1.3,3.45,3.45,0,0,1,3.2,6.1Z"/><path class="cls-42" d="M356.1,216c-.1,1.2-3,1.9-6.5,1.7s-6.3-1.3-6.3-2.5,3-1.9,6.5-1.7S356.1,214.8,356.1,216Z"/><path class="cls-43" d="M344.2,181.5l1.1-1.3a21.85,21.85,0,0,1,4.3,6v-4.7h1.7v.5a15.5,15.5,0,0,1,4.4-4l.8,1.5c-2.5,1.4-4.5,4.4-5.2,5.3v30h-1.7V190.2C349.1,189,346.9,183.8,344.2,181.5Z"/><path class="cls-44" d="M333.7,170.2a4,4,0,0,1,3.5-3.9,14.92,14.92,0,0,1-.2-2.1,11,11,0,0,1,11-11,10.85,10.85,0,0,1,8.4,3.9h.8a9,9,0,0,1,9,9,9.07,9.07,0,0,1-1.6,5.1,6,6,0,0,1,1.8,4.2,5.8,5.8,0,0,1-5.8,5.8,5.89,5.89,0,0,1-4.4-2,9.12,9.12,0,0,1-6.6,2.8,8.92,8.92,0,0,1-4.5-1.2,5.63,5.63,0,0,1-4.8,2.6,5.8,5.8,0,0,1-5.8-5.8,5.9,5.9,0,0,1,1.5-3.9A3.88,3.88,0,0,1,333.7,170.2Z"/><path class="cls-45" d="M333.7,170.2a4,4,0,0,1,3.5-3.9,14.92,14.92,0,0,1-.2-2.1,10.86,10.86,0,0,1,7.9-10.5,10.71,10.71,0,0,0-3.4,7.4,11,11,0,0,0,10.4,11.5,14.77,14.77,0,0,0,2.1-.1,3.9,3.9,0,0,0,3.7,3.7,3.86,3.86,0,0,0,3.7-2.2,5.82,5.82,0,0,0,3.8,1.7,4.87,4.87,0,0,0,1.2-.1,5.83,5.83,0,0,1-5.8,5.6,5.89,5.89,0,0,1-4.4-2,9.12,9.12,0,0,1-6.6,2.8,8.92,8.92,0,0,1-4.5-1.2,5.63,5.63,0,0,1-4.8,2.6,5.8,5.8,0,0,1-5.8-5.8,5.9,5.9,0,0,1,1.5-3.9A3.88,3.88,0,0,1,333.7,170.2Z"/><path class="cls-45" d="M355.2,158a4.32,4.32,0,0,0-2.7,3.4,4.46,4.46,0,0,0,3.7,5.2h.1a5.24,5.24,0,0,1-2.5.3,4.51,4.51,0,0,1-3.7-5.2A4.57,4.57,0,0,1,355.2,158Z"/><path class="cls-45" d="M362.2,171.2a2.78,2.78,0,0,0-.9-2.7,3,3,0,0,0-4.2.1.1.1,0,0,1-.1.1,3.68,3.68,0,0,1,.8-1.5,3,3,0,0,1,4.2-.1A2.87,2.87,0,0,1,362.2,171.2Z"/><path class="cls-42" d="M137.2,312.2c.4.9-1.3,2.7-4,4s-5.1,1.8-5.6.9,1.3-2.7,4-4S136.7,311.4,137.2,312.2Z"/><path class="cls-43" d="M113.8,292.4l.2-1.4a18,18,0,0,1,5.7,2.5l-2-3.4,1.2-.7.2.4a12.28,12.28,0,0,1,1.5-4.7l1.2.7a13.68,13.68,0,0,0-1.4,6.1l12.9,21.7-1.2.7-10.6-17.8C120.5,295.7,116.7,292.9,113.8,292.4Z"/><path class="cls-44" d="M101.3,288.7a3.17,3.17,0,0,1,.9-4.3,17.1,17.1,0,0,1-1.1-1.4,9.15,9.15,0,0,1,3.2-12.6,9.35,9.35,0,0,1,7.8-.8,1.76,1.76,0,0,0,.5-.4,7.6,7.6,0,0,1,10.4,2.6,8.61,8.61,0,0,1,1.1,4.3,4.8,4.8,0,0,1,3.1,2.3,4.9,4.9,0,0,1-1.7,6.7,4.4,4.4,0,0,1-4,.4,7.26,7.26,0,0,1-3.5,4.9,8.73,8.73,0,0,1-3.7,1.1,4.64,4.64,0,0,1-2.4,3.9,4.9,4.9,0,0,1-6.7-1.7,4.82,4.82,0,0,1-.6-3.5A3,3,0,0,1,101.3,288.7Z"/><path class="cls-45" d="M101.3,288.7a3.17,3.17,0,0,1,.9-4.3,17.1,17.1,0,0,1-1.1-1.4,9.33,9.33,0,0,1,1.2-11,9.53,9.53,0,0,0,.7,6.8,9.24,9.24,0,0,0,12.5,3.8,13,13,0,0,0,1.5-1,3.31,3.31,0,0,0,4.3,1.1,3.24,3.24,0,0,0,1.7-3.2,4.79,4.79,0,0,0,3.5-.4,5.58,5.58,0,0,0,.8-.5,4.85,4.85,0,0,1-1.8,6.5,4.4,4.4,0,0,1-4,.4,7.26,7.26,0,0,1-3.5,4.9,8.73,8.73,0,0,1-3.7,1.1,4.64,4.64,0,0,1-2.4,3.9,4.9,4.9,0,0,1-6.7-1.7,4.82,4.82,0,0,1-.6-3.5A3,3,0,0,1,101.3,288.7Z"/><path class="cls-45" d="M111.6,270.7a3.59,3.59,0,0,0-.5,3.6,3.69,3.69,0,0,0,4.9,2.2h.1a3.71,3.71,0,0,1-1.7,1.3,3.82,3.82,0,0,1-2.8-7.1Z"/><path class="cls-45" d="M122.3,277.2a2.44,2.44,0,0,0-1.8-1.6,2.5,2.5,0,0,0-3,1.9v.1a3.21,3.21,0,0,1-.1-1.4,2.58,2.58,0,0,1,3-1.9A2.4,2.4,0,0,1,122.3,277.2Z"/><path class="cls-42" d="M317.1,345c0,.7-2.2,2-6.9,2s-8.4-1.2-8.4-2,3.8-1.3,8.4-1.3S317.1,344.2,317.1,345Z"/><polygon class="cls-46" points="310.1 296.4 309.3 296.4 308.5 296.4 307.7 334.6 309.3 334.6 310.9 334.6 310.1 296.4"/><polygon class="cls-46" points="311.9 345.2 306.7 345.2 306.8 327.3 311.8 327.3 311.9 345.2"/><path class="cls-46" d="M310.8,325.2a1.5,1.5,0,1,1-1.5-1.5A1.54,1.54,0,0,1,310.8,325.2Z"/><path class="cls-46" d="M310.9,326.4a.43.43,0,0,1-.4.4h-2.4a.43.43,0,0,1-.4-.4h0a.43.43,0,0,1,.4-.4h2.4a.43.43,0,0,1,.4.4Z"/><path class="cls-47" d="M307.5,328.6a.43.43,0,0,0-.4.4v15.1a.4.4,0,0,0,.8,0V329A.43.43,0,0,0,307.5,328.6Z"/><path class="cls-47" d="M308.7,328.6a.43.43,0,0,0-.4.4v15.1a.4.4,0,0,0,.8,0V329A.43.43,0,0,0,308.7,328.6Z"/><path class="cls-47" d="M309.9,328.6a.43.43,0,0,0-.4.4v15.1a.4.4,0,0,0,.8,0V329C310.2,328.8,310.1,328.6,309.9,328.6Z"/><path class="cls-47" d="M311.1,328.6a.43.43,0,0,0-.4.4v15.1a.4.4,0,1,0,.8,0V329C311.4,328.8,311.3,328.6,311.1,328.6Z"/><polygon class="cls-47" points="308.5 297.7 310.1 297.6 310.1 296.9 308.5 296.9 308.5 297.7"/><polygon class="cls-46" points="309.8 282.2 308.8 282.2 309.2 274.6 309.4 274.6 309.8 282.2"/><polygon class="cls-48" points="311.1 295.4 307.5 295.4 306.4 286 312.1 286 311.1 295.4"/><polygon class="cls-49" points="306.1 295.4 307.5 295.4 306.4 286 304.5 286 306.1 295.4"/><polygon class="cls-50" points="312.5 295.4 311.1 295.4 312.1 286 314.1 286 312.5 295.4"/><rect class="cls-46" x="306" y="295.4" width="6.6" height="1"/><path class="cls-46" d="M309.3,280.4a3.54,3.54,0,0,0-3.5,3.5h6.9A3.39,3.39,0,0,0,309.3,280.4Z"/><path class="cls-47" d="M305.8,283.8h6.9a2.38,2.38,0,0,0-.3-1.2l-6.5.4C305.9,283.2,305.8,283.5,305.8,283.8Z"/><path class="cls-46" d="M312.2,296.8a.43.43,0,0,1-.4.4h-5a.43.43,0,0,1-.4-.4h0a.43.43,0,0,1,.4-.4h5a.37.37,0,0,1,.4.4Z"/><path class="cls-46" d="M315.1,285.7a.43.43,0,0,1-.4.4H303.8a.43.43,0,0,1-.4-.4h0a.43.43,0,0,1,.4-.4h10.9a.37.37,0,0,1,.4.4Z"/><polygon class="cls-46" points="311.1 295.4 312.4 286 312.1 286 310.8 295.4 311.1 295.4"/><rect class="cls-46" x="306.9" y="286" width="0.3" height="9.5" transform="translate(-37.06 44.98) rotate(-7.9)"/><rect class="cls-46" x="305.2" y="283.8" width="8.2" height="1.5"/><polygon class="cls-47" points="305.2 285.3 313.4 285.3 313.4 285 305.2 284.4 305.2 285.3"/><polygon class="cls-47" points="308.2 311.3 310.4 311.1 310.4 310.4 308.2 310.4 308.2 311.3"/><path class="cls-46" d="M310.8,309a1.5,1.5,0,1,1-1.5-1.5A1.47,1.47,0,0,1,310.8,309Z"/><path class="cls-46" d="M310.9,310.1a.43.43,0,0,1-.4.4h-2.4a.43.43,0,0,1-.4-.4h0a.43.43,0,0,1,.4-.4h2.4c.2.1.4.2.4.4Z"/><polygon class="cls-47" points="306.8 328.3 311.8 328 311.8 327.3 306.8 327.3 306.8 328.3"/><path class="cls-46" d="M312.2,327.1a.43.43,0,0,1-.4.4h-5a.43.43,0,0,1-.4-.4h0a.43.43,0,0,1,.4-.4h5a.43.43,0,0,1,.4.4Z"/><path class="cls-46" d="M309.7,275a.43.43,0,0,1-.4.4h0a.43.43,0,0,1-.4-.4v-.5a.43.43,0,0,1,.4-.4h0a.43.43,0,0,1,.4.4Z"/><path class="cls-42" d="M127.6,391.6c.4.5-.5,2.4-3.5,4.6s-6.1,3.3-6.4,2.8,1.8-2.7,4.8-5S127.3,391.1,127.6,391.6Z"/><polygon class="cls-46" points="99.3 363.3 98.8 363.6 98.3 364 116.4 389.4 117.5 388.6 118.5 387.8 99.3 363.3"/><polygon class="cls-46" points="124.3 394.3 121 396.8 112.2 385.1 115.5 382.6 124.3 394.3"/><path class="cls-46" d="M113.9,381.7a1.21,1.21,0,1,1-1.7-.2A1.25,1.25,0,0,1,113.9,381.7Z"/><path class="cls-46" d="M114.5,382.5c.1.1.1.3-.1.5l-1.6,1.2c-.1.1-.3.1-.5-.1h0c-.1-.1-.1-.3.1-.5l1.6-1.2c.2-.1.4-.1.5.1Z"/><path class="cls-47" d="M113.4,385.6c-.1.1-.2.3-.1.4l7.4,9.9c.1.1.3.2.4.1s.2-.3.1-.4l-7.4-9.9A.25.25,0,0,0,113.4,385.6Z"/><path class="cls-47" d="M114.2,385c-.1.1-.2.3-.1.4l7.4,9.9c.1.1.3.2.4.1s.2-.3.1-.4l-7.4-9.9A.25.25,0,0,0,114.2,385Z"/><path class="cls-47" d="M114.9,384.4c-.1.1-.2.3-.1.4l7.4,9.9c.1.1.3.2.4.1s.2-.3.1-.4l-7.4-9.9C115.2,384.3,115.1,384.3,114.9,384.4Z"/><path class="cls-47" d="M115.7,383.8c-.1.1-.2.3-.1.4l7.4,9.9c.1.1.3.2.4.1s.2-.3.1-.4l-7.4-9.9C116,383.8,115.8,383.7,115.7,383.8Z"/><polygon class="cls-47" points="98.9 364.9 99.9 364 99.5 363.6 98.5 364.3 98.9 364.9"/><polygon class="cls-46" points="92.2 354.1 91.5 354.6 88 349.5 88.2 349.3 92.2 354.1"/><polygon class="cls-48" points="99.5 362.1 97.1 363.9 91.9 358.3 95.6 355.5 99.5 362.1"/><polygon class="cls-49" points="96.2 364.6 97.1 363.9 91.9 358.3 90.6 359.2 96.2 364.6"/><polygon class="cls-50" points="100.4 361.4 99.5 362.1 95.6 355.5 96.8 354.5 100.4 361.4"/><rect class="cls-46" x="95.9" y="362.86" width="5.4" height="0.8" transform="translate(-197.95 131.45) rotate(-36.8)"/><path class="cls-46" d="M91,353.2a2.86,2.86,0,0,0-.6,4l4.5-3.4A2.75,2.75,0,0,0,91,353.2Z"/><path class="cls-47" d="M90.4,357.1l4.5-3.4a2.7,2.7,0,0,0-.8-.7L90,356.5A2.09,2.09,0,0,0,90.4,357.1Z"/><path class="cls-46" d="M100.9,362.5c.1.1.1.3-.1.5l-3.3,2.4c-.1.1-.3.1-.5-.1h0c-.1-.1-.1-.3.1-.5l3.3-2.4c.2-.1.4-.1.5.1Z"/><path class="cls-46" d="M97.4,353.8c.1.1.1.3-.1.5l-7.1,5.3c-.1.1-.3.1-.5-.1h0c-.1-.1-.1-.3.1-.5l7.1-5.3a.44.44,0,0,1,.5.1Z"/><polygon class="cls-46" points="99.5 362.2 95.7 355.4 95.5 355.5 99.3 362.3 99.5 362.2"/><rect class="cls-46" x="94.39" y="357.22" width="0.2" height="7.7" transform="translate(-226.76 171.07) rotate(-44.73)"/><rect class="cls-46" x="89.71" y="355.29" width="6.7" height="1.2" transform="matrix(0.8, -0.6, 0.6, 0.8, -194.66, 126.69)"/><polygon class="cls-47" points="90.7 358.4 96 354.4 95.9 354.2 90.3 357.8 90.7 358.4"/><polygon class="cls-47" points="105.4 373.9 106.7 372.7 106.4 372.3 105 373.3 105.4 373.9"/><path class="cls-46" d="M105.9,371.1a1.21,1.21,0,1,1-1.7-.2A1.25,1.25,0,0,1,105.9,371.1Z"/><path class="cls-46" d="M106.6,371.9c.1.1.1.3-.1.5l-1.6,1.2c-.1.1-.3.1-.5-.1h0c-.1-.1-.1-.3.1-.5l1.6-1.2c.1-.1.3-.1.5.1Z"/><polygon class="cls-47" points="112.7 385.7 115.9 383.1 115.5 382.6 112.2 385.1 112.7 385.7"/><path class="cls-46" d="M115.7,382.3c.1.1.1.3-.1.5l-3.3,2.4c-.1.1-.3.1-.5-.1h0c-.1-.1-.1-.3.1-.5l3.3-2.4c.2-.1.4-.1.5.1Z"/><path class="cls-46" d="M88.6,349.4c.1.2.1.4-.1.5h0c-.2.1-.4.1-.5-.1l-.2-.3c-.1-.2-.1-.4.1-.5h0c.2-.1.4-.1.5.1Z"/><path class="cls-51" d="M385.5,282.1a53.94,53.94,0,0,1-3.8-20.5H381a54.78,54.78,0,0,0,3.7,20.5Z"/><path class="cls-51" d="M393,286.4h.7a55.52,55.52,0,0,0,3.1-20.1h-.7A53.44,53.44,0,0,1,393,286.4Z"/><polygon class="cls-31" points="384.9 286.8 384.5 287 382 281.7 382.4 281.5 384.9 286.8"/><path class="cls-31" d="M381.7,277.3a17.57,17.57,0,0,1,1.7,6.9,19.19,19.19,0,0,1-4.3-5.7,17.57,17.57,0,0,1-1.7-6.9A19.19,19.19,0,0,1,381.7,277.3Z"/><path class="cls-31" d="M381.7,277.3a19.19,19.19,0,0,0-4.3-5.7l6,12.7A17.87,17.87,0,0,0,381.7,277.3Z"/><path class="cls-31" d="M385.3,286.6a.78.78,0,0,0-.8-.2.52.52,0,0,0-.3.7Z"/><polygon class="cls-31" points="383.7 287.3 384.1 287.6 387.2 282.7 386.8 282.4 383.7 287.3"/><path class="cls-31" d="M388,278.3a17.78,17.78,0,0,0-2.5,6.7,18,18,0,0,0,4.9-5.2,17.78,17.78,0,0,0,2.5-6.7A19.58,19.58,0,0,0,388,278.3Z"/><path class="cls-31" d="M388,278.3a19.58,19.58,0,0,1,4.9-5.2L385.4,285A19.12,19.12,0,0,1,388,278.3Z"/><path class="cls-31" d="M383.4,287.1a.61.61,0,0,1,.8-.1.54.54,0,0,1,.2.8Z"/><rect class="cls-31" x="393.18" y="282.79" width="0.4" height="4.6" transform="translate(-54.74 97.43) rotate(-13.21)"/><path class="cls-31" d="M391,280a14.81,14.81,0,0,0,2.3,5.1,15,15,0,0,0-.2-5.6,14.81,14.81,0,0,0-2.3-5.1A14.93,14.93,0,0,0,391,280Z"/><path class="cls-31" d="M391,280a14.93,14.93,0,0,1-.2-5.6l2.5,10.8A20.76,20.76,0,0,1,391,280Z"/><path class="cls-31" d="M393.4,287.5c0-.2.1-.5.4-.5s.5.1.6.3Z"/><rect class="cls-31" x="389.69" y="286.8" width="5.8" height="0.5" transform="translate(-62.81 457.75) rotate(-56.72)"/><path class="cls-31" d="M395.3,280.4a19.73,19.73,0,0,0-2.7,6.6,17.8,17.8,0,0,0,5-5.1,19.73,19.73,0,0,0,2.7-6.6A19.58,19.58,0,0,0,395.3,280.4Z"/><path class="cls-31" d="M395.3,280.4a19.58,19.58,0,0,1,5-5.1L392.6,287A18.15,18.15,0,0,1,395.3,280.4Z"/><path class="cls-31" d="M390.5,289.1a.61.61,0,0,1,.8-.1.63.63,0,0,1,.2.8Z"/><rect class="cls-31" x="380.91" y="283.75" width="7" height="0.6" transform="matrix(0.14, -0.99, 0.99, 0.14, 49.62, 625.17)"/><path class="cls-31" d="M387.2,276a22.27,22.27,0,0,1-2.8,8.1,21.41,21.41,0,0,1,2.4-16.6A22.34,22.34,0,0,1,387.2,276Z"/><path class="cls-31" d="M387.2,276a23.55,23.55,0,0,0-.5-8.5l-2.3,16.6A22.27,22.27,0,0,0,387.2,276Z"/><path class="cls-31" d="M384.6,287.6a.67.67,0,0,0-.6-.7.69.69,0,0,0-.8.5Z"/><path class="cls-31" d="M384.6,287.6c0,.1-.3.1-.8,0s-.7-.2-.7-.2.3-.1.8,0S384.6,287.5,384.6,287.6Z"/><path class="cls-52" d="M388,259.2c0,.6-1.1,1-1.2,1.6s.5,1.5.2,2-1.5.2-1.9.6-.4,1.6-1,1.8-1.3-.7-1.9-.7-1.3,1-1.8.8-.7-1.4-1.1-1.7-1.6.1-2-.4.3-1.5.1-2-1.3-.9-1.4-1.5,1.1-1,1.2-1.6-.5-1.5-.2-2,1.5-.2,1.9-.6.4-1.6,1-1.8,1.3.7,1.9.7,1.3-1,1.8-.8.7,1.4,1.1,1.7,1.6-.1,2,.4-.3,1.5-.1,2S387.9,258.6,388,259.2Z"/><path class="cls-53" d="M383.2,259.4a1.25,1.25,0,1,1-1.3-1.2A1.24,1.24,0,0,1,383.2,259.4Z"/><path class="cls-53" d="M381.8,256.4a.54.54,0,0,0-.5.5.5.5,0,0,0,1,0A.54.54,0,0,0,381.8,256.4Z"/><path class="cls-53" d="M382,261.5a.47.47,0,0,0-.5.5.5.5,0,0,0,1,0A.47.47,0,0,0,382,261.5Z"/><path class="cls-53" d="M380.5,258.1a.49.49,0,1,0-.7,0C379.9,258.3,380.3,258.3,380.5,258.1Z"/><path class="cls-53" d="M383.4,260.8a.49.49,0,1,0,.7,0A.48.48,0,0,0,383.4,260.8Z"/><path class="cls-53" d="M379.9,259.6a.5.5,0,1,0-.5.5A.54.54,0,0,0,379.9,259.6Z"/><path class="cls-53" d="M384.4,258.9a.47.47,0,0,0-.5.5.54.54,0,0,0,.5.5.47.47,0,0,0,.5-.5C384.9,259.1,384.7,258.8,384.4,258.9Z"/><path class="cls-53" d="M379.9,261a.49.49,0,1,0,.7,0A.42.42,0,0,0,379.9,261Z"/><path class="cls-53" d="M384,258a.49.49,0,1,0-.7,0A.48.48,0,0,0,384,258Z"/><path class="cls-54" d="M401.4,267.9c-.4.5-1.5.1-2,.4s-.6,1.5-1.1,1.7-1.3-.8-1.8-.8-1.3.9-1.9.7-.5-1.4-1-1.7-1.6-.1-1.9-.5.4-1.5.2-2-1.3-1-1.3-1.6,1.1-.9,1.3-1.5-.5-1.5-.1-2,1.5-.1,2-.4.6-1.5,1.1-1.7,1.3.8,1.8.8,1.3-.9,1.9-.7.5,1.4,1,1.7,1.6.1,1.9.5-.4,1.5-.2,2,1.3,1,1.3,1.6-1.2.9-1.3,1.5S401.8,267.5,401.4,267.9Z"/><path class="cls-55" d="M397.7,265a1.28,1.28,0,1,1-.2-1.8A1.39,1.39,0,0,1,397.7,265Z"/><path class="cls-55" d="M398.5,261.9a.5.5,0,1,0,.1.7A.47.47,0,0,0,398.5,261.9Z"/><path class="cls-55" d="M395.4,265.8a.5.5,0,1,0,.1.7A.49.49,0,0,0,395.4,265.8Z"/><path class="cls-55" d="M396.4,262.3a.51.51,0,1,0-.6-.4C395.8,262.1,396.1,262.3,396.4,262.3Z"/><path class="cls-55" d="M396.9,266.2a.51.51,0,1,0,.6.4A.68.68,0,0,0,396.9,266.2Z"/><path class="cls-55" d="M395.1,263a.5.5,0,1,0-.7.1A.49.49,0,0,0,395.1,263Z"/><path class="cls-55" d="M398.9,265.4a.5.5,0,1,0,.1.7A.42.42,0,0,0,398.9,265.4Z"/><path class="cls-55" d="M394.1,264.1a.51.51,0,1,0,.6.4C394.6,264.2,394.4,264,394.1,264.1Z"/><path class="cls-55" d="M399.2,264.4a.51.51,0,1,0-.6-.4C398.7,264.3,398.9,264.5,399.2,264.4Z"/><path class="cls-51" d="M395.2,270.8a2.14,2.14,0,0,1,.8,1.5,2,2,0,0,1-1.7-.1,2.14,2.14,0,0,1-.8-1.5A2.51,2.51,0,0,1,395.2,270.8Z"/><path class="cls-51" d="M398.4,272.1a2.14,2.14,0,0,0,.8-1.5,2,2,0,0,0-1.7.1,2.14,2.14,0,0,0-.8,1.5A2.51,2.51,0,0,0,398.4,272.1Z"/><path class="cls-51" d="M383.6,268.4a2.14,2.14,0,0,0,.8-1.5,2,2,0,0,0-1.7.1,2.14,2.14,0,0,0-.8,1.5A2.51,2.51,0,0,0,383.6,268.4Z"/><path class="cls-51" d="M384,272.2a2.1,2.1,0,0,0-.1-1.7,2.31,2.31,0,0,0-1.4.9,2.1,2.1,0,0,0,.1,1.7A2.31,2.31,0,0,0,384,272.2Z"/><path class="cls-51" d="M380.2,267.2a2,2,0,0,0,1.2.4,1.67,1.67,0,0,0-.3-1.2,2,2,0,0,0-1.2-.4A1.74,1.74,0,0,0,380.2,267.2Z"/></g></g></g></svg>
