<svg id="Layer_1" data-name="Layer 1" xmlns="http://www.w3.org/2000/svg" viewBox="0 0 450 450"><defs><style>.cls-1{fill:#ffc34d;}.cls-2{fill:#435d76;}.cls-3{fill:#7ecdd9;}.cls-4{fill:#a8dee6;}</style></defs><title>Mesa de trabajo 1</title><circle class="cls-1" cx="225" cy="225" r="225"/><rect class="cls-2" x="227" y="71.5" width="2.6" height="18.5"/><path class="cls-2" d="M228.3,87.8c15.1,0,27.4,9.8,27.4,21.9,0,7.1-4.2,13.3-10.6,17.3H211.6c-6.4-4-10.6-10.3-10.6-17.3C200.9,97.7,213.2,87.8,228.3,87.8Z"/><path class="cls-3" d="M228.3,247.1c28,0,50.8-26.7,50.8-59.8,0-19.2-7.7-36.3-19.7-47.2H197.2c-12,10.9-19.7,28-19.7,47.2C177.5,220.3,200.3,247.1,228.3,247.1Z"/><rect class="cls-2" x="147.2" y="166.5" width="162.1" height="51.3"/><rect class="cls-3" x="76.6" y="209.8" width="303.4" height="134.8"/><path class="cls-2" d="M335.8,223H287.2v13.7h74.5V223Zm26,101.4H287.2v13.7h74.5l.1-13.7Zm0-20.4H287.2v13.7h74.5l.1-13.7Zm0-20.2H287.2v13.7h74.5l.1-13.7Zm0-20.3H287.2v13.7h74.5l.1-13.7Zm0-20.2H287.2V257h74.5l.1-13.7Z"/><path class="cls-2" d="M141.5,223H92.9v13.7h74.5V223Zm25.9,101.4H92.9v13.7h74.5V324.4Zm0-20.4H92.9v13.7h74.5V304Zm0-20.2H92.9v13.7h74.5V283.8Zm0-20.3H92.9v13.7h74.5V263.5Zm0-20.2H92.9V257h74.5Z"/><rect class="cls-2" x="145" y="223" width="166.6" height="121.6"/><rect class="cls-4" x="144.8" y="227.8" width="11.5" height="116.8"/><rect class="cls-4" x="300.2" y="227.8" width="11.5" height="116.8"/><polygon class="cls-4" points="228.3 173.9 275.8 200.9 323.3 227.8 228.3 227.8 133.3 227.8 180.9 200.9 228.3 173.9"/><polygon class="cls-2" points="228.3 189.8 185.6 214 271 214 228.3 189.8"/><rect class="cls-4" x="169.3" y="227.8" width="13.1" height="116.8"/><rect class="cls-4" x="195.6" y="227.8" width="13.1" height="116.8"/><rect class="cls-4" x="221.7" y="227.8" width="13.1" height="116.8"/><rect class="cls-4" x="248" y="227.8" width="13.1" height="116.8"/><rect class="cls-4" x="274.2" y="227.8" width="13.1" height="116.8"/><path class="cls-4" d="M196.6,140.1H260a1.22,1.22,0,0,0,1.2-1.2v-4.3a1.22,1.22,0,0,0-1.2-1.2H196.5a1.22,1.22,0,0,0-1.2,1.2v4.3A1.24,1.24,0,0,0,196.6,140.1Z"/><rect class="cls-3" x="199.4" y="118.6" width="59.8" height="14.8"/><rect class="cls-2" x="197.5" y="116.2" width="61.5" height="17"/><rect class="cls-4" x="197.5" y="116.2" width="4.3" height="17"/><rect class="cls-4" x="254.9" y="116.2" width="4.3" height="17"/><rect class="cls-4" x="206.5" y="116.2" width="4.9" height="17"/><rect class="cls-4" x="216.2" y="116.2" width="4.9" height="17"/><rect class="cls-4" x="225.8" y="116.2" width="4.9" height="17"/><rect class="cls-4" x="235.5" y="116.2" width="4.9" height="17"/><rect class="cls-4" x="245.2" y="116.2" width="4.9" height="17"/><path class="cls-4" d="M196.6,116.2H260a1.22,1.22,0,0,0,1.2-1.2v-4.3a1.22,1.22,0,0,0-1.2-1.2H196.5a1.22,1.22,0,0,0-1.2,1.2V115A1.24,1.24,0,0,0,196.6,116.2Z"/><polygon class="cls-2" points="227 71.5 245.5 71.5 242.1 76.1 245.5 80.8 227 80.8 227 71.5"/></svg>
