<?xml version="1.0" encoding="utf-8"?>
<!-- Generator: Adobe Illustrator 22.0.1, SVG Export Plug-In . SVG Version: 6.00 Build 0)  -->
<svg version="1.1" id="Layer_1" xmlns="http://www.w3.org/2000/svg" xmlns:xlink="http://www.w3.org/1999/xlink" x="0px" y="0px"
	 viewBox="0 0 450 450" style="enable-background:new 0 0 450 450;" xml:space="preserve">
<style type="text/css">
	.st0{fill:#FFC34D;}
	.st1{fill:#FFFFFF;}
</style>
<title>Mesa de trabajo 1</title>
<circle class="st0" cx="225" cy="225" r="225"/>
<g>
	<g>
		<g>
			<path class="st1" d="M93.9,347c-3.2,0-5.9-2.6-5.9-5.9v-96.5c0-3.2,2.6-5.9,5.9-5.9H129c1.6,0,2.9-1.3,2.9-2.9v-26.3
				c0-3.2,2.6-5.9,5.9-5.9h17.5c1.6,0,2.9-1.3,2.9-2.9v-17.5c0-1.6-1.3-2.9-2.9-2.9h-8.8c-3.2,0-5.9-2.6-5.9-5.9
				c0-3.2,2.6-5.9,5.9-5.9h20.8c1.6,0,2.9-1.3,2.9-2.9v-3.3c0-27,20.2-50.5,46.9-54.5c1.4-0.2,2.4-1.4,2.4-2.8V77.9
				c0-3.2,2.6-5.9,5.9-5.9c3.2,0,5.9,2.6,5.9,5.9V105c0,1.4,1,2.6,2.4,2.8c26.7,4.1,46.9,27.5,46.9,54.5v3.3c0,1.6,1.3,2.9,2.9,2.9
				h29.6c3.2,0,5.9,2.6,5.9,5.9c0,3.2-2.6,5.9-5.9,5.9h-17.5c-1.6,0-2.9,1.3-2.9,2.9v17.5c0,1.6,1.3,2.9,2.9,2.9h17.5
				c3.2,0,5.9,2.6,5.9,5.9v26.3c0,1.6,1.3,2.9,2.9,2.9h35.1c3.2,0,5.9,2.6,5.9,5.9v96.5c0,3.2-2.6,5.9-5.9,5.9H93.9z M322,250.5
				c-1.6,0-2.9,1.3-2.9,2.9v79c0,1.6,1.3,2.9,2.9,2.9h26.3c1.6,0,2.9-1.3,2.9-2.9v-79c0-1.6-1.3-2.9-2.9-2.9H322z M146.5,215.4
				c-1.6,0-2.9,1.3-2.9,2.9v114.1c0,1.6,1.3,2.9,2.9,2.9h157.9c1.6,0,2.9-1.3,2.9-2.9V218.3c0-1.6-1.3-2.9-2.9-2.9H146.5z
				 M102.7,250.5c-1.6,0-2.9,1.3-2.9,2.9v79c0,1.6,1.3,2.9,2.9,2.9H129c1.6,0,2.9-1.3,2.9-2.9v-79c0-1.6-1.3-2.9-2.9-2.9H102.7z
				 M172.9,180.3c-1.6,0-2.9,1.3-2.9,2.9v17.5c0,1.6,1.3,2.9,2.9,2.9h105.3c1.6,0,2.9-1.3,2.9-2.9v-17.5c0-1.6-1.3-2.9-2.9-2.9
				H172.9z M225.5,118.9c-24,0-43.5,19.5-43.5,43.5v3.3c0,1.6,1.3,2.9,2.9,2.9h81.2c1.6,0,2.9-1.3,2.9-2.9v-3.3
				C269,138.4,249.5,118.9,225.5,118.9z"/>
		</g>
	</g>
	<g>
		<g>
			<path class="st1" d="M172.9,311.9c-3.2,0-5.9-2.6-5.9-5.9v-61.4c0-3.2,2.6-5.9,5.9-5.9c3.2,0,5.9,2.6,5.9,5.9V306
				C178.8,309.3,176.1,311.9,172.9,311.9z"/>
		</g>
	</g>
	<g>
		<g>
			<path class="st1" d="M208,311.9c-3.2,0-5.9-2.6-5.9-5.9v-61.4c0-3.2,2.6-5.9,5.9-5.9c3.2,0,5.9,2.6,5.9,5.9V306
				C213.8,309.3,211.2,311.9,208,311.9z"/>
		</g>
	</g>
	<g>
		<g>
			<path class="st1" d="M243,311.9c-3.2,0-5.9-2.6-5.9-5.9v-61.4c0-3.2,2.6-5.9,5.9-5.9c3.2,0,5.9,2.6,5.9,5.9V306
				C248.9,309.3,246.3,311.9,243,311.9z"/>
		</g>
	</g>
	<g>
		<g>
			<path class="st1" d="M278.1,311.9c-3.2,0-5.9-2.6-5.9-5.9v-61.4c0-3.2,2.6-5.9,5.9-5.9c3.2,0,5.9,2.6,5.9,5.9V306
				C284,309.3,281.4,311.9,278.1,311.9z"/>
		</g>
	</g>
</g>
</svg>
