<svg id="Layer_1" data-name="Layer 1" xmlns="http://www.w3.org/2000/svg" viewBox="0 0 600 600"><defs><style>.cls-1{fill:#38aedf;}.cls-2{fill:#fff;}</style></defs><title>5-iconohilo</title><circle class="cls-1" cx="300" cy="300" r="300"/><path class="cls-2" d="M312,203.33a206.26,206.26,0,0,0-11.21-30.84,60,60,0,0,0-70.8-33L104.66,174a60,60,0,0,0-43.92,64.61,204.09,204.09,0,0,0,6.17,32.22c11.54,41.93,37.56,85.54,69.57,116.66,28.88,28.07,58.83,42.79,86.24,42.79A72.32,72.32,0,0,0,242,427.74C309.88,409,335.82,289.68,312,203.33ZM238.08,413.56c-26.6,7.31-59.89-6-91.35-36.59C116.51,347.6,92,306.48,81.08,267A189.94,189.94,0,0,1,75.36,237a45.38,45.38,0,0,1,33.2-48.84l125.36-34.53a45.4,45.4,0,0,1,53.53,24.94,191.27,191.27,0,0,1,10.41,28.63C319.74,286.67,296.45,397.48,238.08,413.56Z"/><path class="cls-2" d="M173.67,266.48a7.38,7.38,0,0,0-9-5.13l-29.29,8.07a7.35,7.35,0,1,0,3.9,14.17l29.3-8.07A7.35,7.35,0,0,0,173.67,266.48Z"/><path class="cls-2" d="M252.52,237.14l-29.3,8.07a7.35,7.35,0,1,0,3.91,14.17l29.3-8.07a7.35,7.35,0,1,0-3.91-14.17Z"/><path class="cls-2" d="M257.8,318a7.36,7.36,0,0,0-10,2.75,48.13,48.13,0,0,1-65.54,18.06A7.35,7.35,0,1,0,175,351.61,62.8,62.8,0,0,0,260.56,328,7.35,7.35,0,0,0,257.8,318Z"/><path class="cls-2" d="M492.25,231.79l-126-32.18a59.72,59.72,0,0,0-36.15,2,7.35,7.35,0,1,0,5.18,13.76,45.41,45.41,0,0,1,27.33-1.5l126,32.18a45.37,45.37,0,0,1,34.11,48.21,189.35,189.35,0,0,1-5.16,30C497.17,404.08,422,488.7,363.33,473.78c-25-6.39-45.82-30.76-58.54-68.6a7.35,7.35,0,0,0-13.94,4.68c14.37,42.74,38.82,70.5,68.84,78.17a70.34,70.34,0,0,0,17.48,2.17c64.09,0,134.34-82.83,154.64-162.31a205.29,205.29,0,0,0,5.56-32.33A60,60,0,0,0,492.25,231.79Z"/><path class="cls-2" d="M375,305.18l-29.44-7.52A7.35,7.35,0,1,0,342,311.9l29.44,7.52a7.23,7.23,0,0,0,1.83.23A7.35,7.35,0,0,0,375,305.18Z"/><path class="cls-2" d="M459.73,342a7.15,7.15,0,0,0,1.82.23,7.36,7.36,0,0,0,1.82-14.48l-29.45-7.52a7.35,7.35,0,0,0-3.64,14.24Z"/><path class="cls-2" d="M341.83,378.62a7.35,7.35,0,1,0,7.5,12.65,48.11,48.11,0,0,1,65.86,16.81,7.35,7.35,0,1,0,12.65-7.49A62.83,62.83,0,0,0,341.83,378.62Z"/></svg>