<?xml version="1.0" encoding="utf-8"?>
<!-- Generator: Adobe Illustrator 22.0.1, SVG Export Plug-In . SVG Version: 6.00 Build 0)  -->
<svg version="1.1" id="icono" xmlns="http://www.w3.org/2000/svg" xmlns:xlink="http://www.w3.org/1999/xlink" x="0px" y="0px"
	 viewBox="0 0 283.5 283.5" style="enable-background:new 0 0 283.5 283.5;" xml:space="preserve">
<style type="text/css">
	.st0{fill:#E79A00;}
	.st1{fill:#FFFFFF;}
</style>
<title>Mesa de trabajo 1</title>
<circle class="st0" cx="141.8" cy="141.8" r="141.8"/>
<g>
	<g>
		<path class="st1" d="M98,184.4h-2.3h-2.3c-3.5,0-6.3-2.6-6.3-5.7s2.8-5.7,6.3-5.7H98c3.5,0,6.3,2.6,6.3,5.7h5.7
			c0-6.1-5.1-11.1-11.4-11.4v-5.8h-5.7v5.8c-6.4,0.3-11.4,5.3-11.4,11.4c0,6.3,5.4,11.4,12,11.4h2.3H98c3.5,0,6.3,2.6,6.3,5.7
			s-2.8,5.7-6.3,5.7h-4.6c-3.5,0-6.3-2.6-6.3-5.7h-5.7c0,6.1,5.1,11.1,11.4,11.4v5.8h5.7v-5.8c6.4-0.3,11.4-5.3,11.4-11.4
			C110,189.5,104.7,184.4,98,184.4z"/>
		<path class="st1" d="M95.8,141.5C70.5,141.5,50,162,50,187.2S70.5,233,95.8,233s45.8-20.5,45.8-45.8S121,141.5,95.8,141.5z
			 M95.8,227.3c-22.1,0-40-18-40-40c0-22.1,18-40,40-40s40,18,40,40C135.8,209.3,117.8,227.3,95.8,227.3z"/>
	</g>
	<g>
		<path class="st1" d="M189.5,92.9h-2.3H185c-3.5,0-6.3-2.6-6.3-5.7c0-3.2,2.8-5.7,6.3-5.7h4.6c3.5,0,6.3,2.6,6.3,5.7h5.7
			c0-6.1-5.1-11.1-11.4-11.4V70h-5.7v5.8C178,76.1,173,81.1,173,87.2c0,6.3,5.4,11.4,12,11.4h2.3h2.3c3.5,0,6.3,2.6,6.3,5.7
			c0,3.2-2.8,5.7-6.3,5.7H185c-3.5,0-6.3-2.6-6.3-5.7H173c0,6.1,5.1,11.1,11.4,11.4v5.8h5.7v-5.8c6.4-0.3,11.4-5.3,11.4-11.4
			C201.5,98,196.2,92.9,189.5,92.9z"/>
		<path class="st1" d="M187.2,50c-25.3,0-45.8,20.5-45.8,45.8s20.5,45.8,45.8,45.8S233,121,233,95.8S212.5,50,187.2,50z
			 M187.2,135.8c-22.1,0-40-18-40-40c0-22.1,18-40,40-40s40,18,40,40C227.3,117.8,209.3,135.8,187.2,135.8z"/>
	</g>
	<path class="st1" d="M135.8,95.8l-34.3-34.3v17.2c-33.9,9.2-51.5,34-51.5,74.3c9.6-22.9,30.9-40,51.5-40v17.2L135.8,95.8z
		 M58.2,129.2c5.5-23.6,20.3-38.4,44.7-45l4.2-1.1v-4.4v-3.4l20.5,20.5l-20.5,20.5v-3.3v-5.7h-5.7C86,107.2,70.1,115.6,58.2,129.2z"
		/>
	<path class="st1" d="M181.5,170.1v-17.2l-34.3,34.3l34.3,34.3v-17.2c33.9-9.2,51.5-34,51.5-74.3
		C223.4,152.9,202.1,170.1,181.5,170.1z M180,198.9l-4.2,1.1v4.4v3.4l-20.5-20.5l20.5-20.5v3.3v5.7h5.7c15.5,0,31.3-8.4,43.2-22
		C219.2,177.5,204.5,192.3,180,198.9z"/>
</g>
</svg>
