<svg id="fig" xmlns="http://www.w3.org/2000/svg" viewBox="0 0 850.4 850.4"><defs><style>.cls-1{fill:#06f;}.cls-2{fill:#fff;}</style></defs><title>Mesa de trabajo 1</title><circle class="cls-1" cx="425.2" cy="425.2" r="425.2"/><circle class="cls-2" cx="420.5" cy="410.1" r="64.4"/><path class="cls-2" d="M489.6,467.9a13.82,13.82,0,0,0-14.3,2.5,81.43,81.43,0,0,1-109.6,0,13.61,13.61,0,0,0-14.3-2.5,81.13,81.13,0,0,0-50.9,75.3V606a8.3,8.3,0,0,0,12.2,7.3,229.85,229.85,0,0,1,215.8,0,8.33,8.33,0,0,0,12.2-7.3V543.1A81.57,81.57,0,0,0,489.6,467.9Z"/><circle class="cls-2" cx="323.9" cy="277.8" r="41.7"/><circle class="cls-2" cx="506.9" cy="277.8" r="41.7" transform="translate(155.16 736.49) rotate(-81.24)"/><circle class="cls-2" cx="246.29" cy="409.37" r="52.2" transform="translate(-217.33 294.06) rotate(-45)"/><circle class="cls-2" cx="604.1" cy="409.4" r="52.2"/><path class="cls-2" d="M316.4,473.2a6.19,6.19,0,0,0-.6-9.6,67.61,67.61,0,0,0-13.5-7.3,11,11,0,0,0-11.5,2.1,66.17,66.17,0,0,1-89,0,11,11,0,0,0-11.6-2.1,65.81,65.81,0,0,0-41.3,61.1v51a6.7,6.7,0,0,0,9.9,5.9,185.66,185.66,0,0,1,87.5-21.8,191.4,191.4,0,0,1,32.4,2.8,6.17,6.17,0,0,0,7.3-6.1V543a95.15,95.15,0,0,1,16.8-54.2A100.77,100.77,0,0,1,316.4,473.2Z"/><path class="cls-2" d="M660.2,456.3a11,11,0,0,0-11.6,2.1,66,66,0,0,1-88.8.1,11.19,11.19,0,0,0-11.7-2.2,66.21,66.21,0,0,0-19.3,11.9,6.22,6.22,0,0,0-.3,8.9,98.91,98.91,0,0,1,9.6,11.8,95.15,95.15,0,0,1,16.8,54.2v8.1a6.16,6.16,0,0,0,7.6,6,190.11,190.11,0,0,1,41.6-4.7,185.66,185.66,0,0,1,87.5,21.8,6.7,6.7,0,0,0,9.9-5.9v-51A65.52,65.52,0,0,0,660.2,456.3Z"/><path class="cls-2" d="M443.7,336.6a77.38,77.38,0,0,1,50.9,52.6,4.29,4.29,0,0,0,4.3,3.1c2.6-.1,5.3-.2,7.9-.2a145.25,145.25,0,0,1,29.7,3,4.24,4.24,0,0,0,4.9-3.1,65,65,0,0,1,37.1-42.3,4.16,4.16,0,0,0,2.3-5.4,52.63,52.63,0,0,0-29.2-29,8.81,8.81,0,0,0-9.3,1.7,52.71,52.71,0,0,1-70.9,0,9,9,0,0,0-9.4-1.7,54.28,54.28,0,0,0-20.4,14.6A4.33,4.33,0,0,0,443.7,336.6Z"/><path class="cls-2" d="M255.6,345.1a65.28,65.28,0,0,1,52.6,44.5,4.14,4.14,0,0,0,4.4,2.9c3.8-.3,7.6-.4,11.4-.4a167.88,167.88,0,0,1,17.5,1A4.17,4.17,0,0,0,346,390a77.29,77.29,0,0,1,43.8-50.6,4.27,4.27,0,0,0,1.8-6.4,52,52,0,0,0-22.9-17.7,8.88,8.88,0,0,0-9.2,1.7,52.72,52.72,0,0,1-70.9.2,9.22,9.22,0,0,0-9.4-1.8A52.91,52.91,0,0,0,252.6,339,4.09,4.09,0,0,0,255.6,345.1Z"/></svg>
