<svg id="Layer_1" data-name="Layer 1" xmlns="http://www.w3.org/2000/svg" viewBox="0 0 450 450"><defs><style>.cls-1{fill:#70bedf;}.cls-2{fill:#d6d6d6;}.cls-3{fill:#275752;}.cls-4{fill:#fffffd;}.cls-5{fill:#4d4d4d;}.cls-6{fill:#ea2324;}.cls-7{fill:#59a49c;}</style></defs><title>Mesa de trabajo 1</title><circle class="cls-1" cx="225" cy="225" r="225"/><path class="cls-2" d="M359.4,183.5v-.3c0-.2.1-.5.1-.9.1-.8.1-1.8.2-2.8s.1-2,.1-2.8v-2.6c0-.8,0-1.8-.1-2.8s-.2-2-.2-2.8c0-.4-.1-.7-.1-.9v-.3s2.8-.9,5.6-1.9,5.6-2.1,5.6-2.1a2.8,2.8,0,0,0-.1-.6q-.15-.6-.3-1.5c-.2-1.2-.5-2.9-.9-4.5l-.6-2.4q-.3-1.2-.6-2.1c-.2-.6-.3-1.1-.4-1.5a3.22,3.22,0,0,0-.2-.6s-3,.2-6,.5-5.9.7-5.9.7-.2-.5-.4-1.2-.7-1.7-1-2.6-.8-1.9-1.1-2.6-.5-1.2-.5-1.2a6.7,6.7,0,0,0-.6-1.1c-.4-.7-.8-1.6-1.3-2.5s-1-1.8-1.4-2.4-.7-1.1-.7-1.1,2.2-2,4.3-4.2,4.2-4.3,4.2-4.3l-1.2-1.7c-.4-.5-.8-1.1-1.3-1.7s-1-1.3-1.5-1.9c-1-1.3-2.2-2.6-3-3.5a13.26,13.26,0,0,0-1-1.1l-.4-.4s-2.6,1.5-5.1,3.1l-5,3.2-.9-.9c-.6-.5-1.3-1.2-2-1.9s-1.5-1.3-2.1-1.8-1-.8-1-.8-.4-.3-1-.8-1.4-1.1-2.2-1.7-1.7-1.2-2.3-1.6-1.1-.7-1.1-.7,1.1-2.8,2-5.6,1.8-5.7,1.8-5.7-.7-.4-1.8-1-2.6-1.4-4.1-2.1-3-1.4-4.2-1.9-2-.8-2-.8-1.7,2.5-3.3,5-3.1,5.1-3.1,5.1-.5-.2-1.2-.4c-.4-.1-.8-.3-1.2-.4s-.9-.3-1.4-.4a18,18,0,0,0-2.7-.7c-.7-.2-1.2-.3-1.2-.3s-.5-.1-1.2-.3-1.7-.3-2.7-.5-2-.3-2.8-.4-1.3-.2-1.3-.2-.1-.7-.2-1.9-.3-2.6-.4-4.1c-.4-3-.8-5.9-.8-5.9s-.8-.1-2.1-.2-2.9-.1-4.6-.1-3.3.1-4.6.1-2.1.2-2.1.2-.5,3-.8,5.9c-.2,1.5-.3,3-.4,4.1s-.2,1.9-.2,1.9-.5.1-1.3.2-1.8.2-2.8.4-2,.3-2.7.5-1.2.3-1.2.3-.5.1-1.2.3-1.7.5-2.7.7c-.5.1-1,.3-1.4.4s-.9.3-1.2.4c-.7.2-1.2.4-1.2.4s-1.5-2.6-3.1-5.1-3.3-5-3.3-5-.8.3-1.9.8-2.7,1.2-4.2,1.9-3,1.5-4.1,2.1-1.8,1-1.8,1,.9,2.9,1.8,5.7l2,5.6a11.62,11.62,0,0,1-1.1.7,55.73,55.73,0,0,0-4.5,3.3c-.6.5-1,.8-1,.8s-.4.3-1,.8-1.3,1.2-2.1,1.8-1.5,1.4-2,1.9a6.05,6.05,0,0,0-.9.9l-5-3.2c-2.5-1.6-5.1-3.1-5.1-3.1a1.2,1.2,0,0,1-.4.4,12,12,0,0,0-1,1.1c-.8,1-2,2.2-3,3.5-.5.7-1,1.3-1.5,1.9s-.9,1.2-1.3,1.7l-1.2,1.7s2,2.2,4.2,4.3,4.3,4.2,4.3,4.2a11.62,11.62,0,0,0-.7,1.1c-.4.7-.9,1.5-1.4,2.4s-.9,1.8-1.3,2.5a5.81,5.81,0,0,1-.6,1.1s-.2.5-.5,1.2a22.63,22.63,0,0,0-1.1,2.6c-.4.9-.7,1.9-1,2.6a6.74,6.74,0,0,0-.4,1.2s-2.9-.4-5.9-.7-6-.5-6-.5a3.22,3.22,0,0,0-.2.6c-.1.4-.2.9-.4,1.5s-.4,1.3-.6,2.1l-.6,2.4c-.4,1.6-.7,3.3-.9,4.5q-.15.9-.3,1.5a1.45,1.45,0,0,1-.1.6s2.8,1.1,5.6,2.1,5.6,1.9,5.6,1.9v.3c0,.2-.1.5-.1.9-.1.8-.1,1.8-.2,2.8s-.1,2-.1,2.8v2.6c0,.8,0,1.8.1,2.8s.2,2,.2,2.8c0,.4.1.7.1.9v.3s-2.8.9-5.6,1.9-5.6,2.1-5.6,2.1a2.8,2.8,0,0,0,.1.6q.15.6.3,1.5c.2,1.2.5,2.9.9,4.5l.6,2.4q.3,1.2.6,2.1c.2.6.3,1.1.4,1.5a3.22,3.22,0,0,0,.2.6s3-.2,6-.5,5.9-.7,5.9-.7.2.5.4,1.2.7,1.7,1,2.6.8,1.9,1.1,2.6.5,1.2.5,1.2a6.7,6.7,0,0,0,.6,1.1c.4.7.8,1.6,1.3,2.5s1,1.8,1.4,2.4.7,1.1.7,1.1-2.2,2-4.3,4.2-4.2,4.3-4.2,4.3l1.2,1.7c.4.5.8,1.1,1.3,1.7s1,1.3,1.5,1.9c1,1.3,2.2,2.6,3,3.5a13.26,13.26,0,0,0,1,1.1l.4.4s2.6-1.5,5.1-3.1l5-3.2a6.05,6.05,0,0,1,.9.9c.6.5,1.3,1.2,2,1.9s1.5,1.3,2.1,1.8,1,.8,1,.8.4.3,1,.8,1.4,1.1,2.2,1.7,1.7,1.2,2.3,1.6,1.1.7,1.1.7-1.1,2.8-2,5.6-1.8,5.7-1.8,5.7.7.4,1.8,1,2.6,1.4,4.1,2.1,3,1.4,4.2,1.9,2,.8,2,.8,1.7-2.5,3.3-5,3.1-5.1,3.1-5.1.5.2,1.2.4c.4.1.8.3,1.2.4s.9.3,1.4.4a18,18,0,0,0,2.7.7c.7.2,1.2.3,1.2.3s.5.1,1.2.3,1.7.3,2.7.5,2,.3,2.8.4,1.3.2,1.3.2.1.7.2,1.9.3,2.6.4,4.1c.4,3,.8,5.9.8,5.9s.8.1,2.1.2,2.9.1,4.6.1,3.3-.1,4.6-.1,2.1-.2,2.1-.2.5-3,.8-5.9c.2-1.5.3-3,.4-4.1s.2-1.9.2-1.9.5-.1,1.3-.2,1.8-.2,2.8-.4,2-.3,2.7-.5,1.2-.3,1.2-.3.5-.1,1.2-.3,1.7-.5,2.7-.7c.5-.1,1-.3,1.4-.4s.9-.3,1.2-.4c.7-.2,1.2-.4,1.2-.4s1.5,2.6,3.1,5.1,3.3,5,3.3,5,.8-.3,2-.8,2.7-1.2,4.2-1.9,3-1.5,4.1-2.1,1.8-1,1.8-1-.9-2.9-1.8-5.7l-2-5.6a11.62,11.62,0,0,1,1.1-.7,55.73,55.73,0,0,0,4.5-3.3c.6-.5,1-.8,1-.8s.4-.3,1-.8,1.3-1.2,2.1-1.8,1.5-1.4,2-1.9a6.05,6.05,0,0,0,.9-.9l5,3.2c2.5,1.6,5.1,3.1,5.1,3.1a1.2,1.2,0,0,1,.4-.4,12,12,0,0,0,1-1.1c.8-1,2-2.2,3-3.5.5-.7,1-1.3,1.5-1.9s.9-1.2,1.3-1.7l1.2-1.7s-2-2.2-4.1-4.3-4.3-4.2-4.3-4.2a11.62,11.62,0,0,0,.7-1.1c.4-.7.9-1.5,1.4-2.4s.9-1.8,1.3-2.5a5.81,5.81,0,0,1,.6-1.1s.2-.5.5-1.2a22.63,22.63,0,0,0,1.1-2.6c.4-.9.7-1.9,1-2.6a6.74,6.74,0,0,0,.4-1.2s2.9.4,5.9.7,6,.5,6,.5a3.22,3.22,0,0,0,.2-.6c.1-.4.2-.9.4-1.5s.4-1.3.6-2.1l.6-2.4c.4-1.6.7-3.3.9-4.5q.15-.9.3-1.5a1.45,1.45,0,0,1,.1-.6s-2.8-1.1-5.6-2.1C362.2,184.4,359.4,183.5,359.4,183.5Zm-72,51a59.1,59.1,0,1,1,59.1-59.1A59.09,59.09,0,0,1,287.4,234.5Z"/><path class="cls-2" d="M217.1,271v-.3c0-.2.1-.5.1-.9.1-.8.1-1.8.2-2.8s.1-2,.1-2.8v-2.6c0-.8,0-1.8-.1-2.8s-.2-2-.2-2.8c0-.4-.1-.7-.1-.9v-.3s2.8-.9,5.6-1.9,5.6-2.1,5.6-2.1a2.8,2.8,0,0,0-.1-.6q-.15-.6-.3-1.5c-.2-1.2-.5-2.9-.9-4.5l-.6-2.4q-.3-1.2-.6-2.1c-.2-.6-.3-1.1-.4-1.5a3.22,3.22,0,0,0-.2-.6s-3,.2-6,.5-5.9.7-5.9.7-.2-.5-.4-1.2-.7-1.7-1-2.6-.8-1.9-1.1-2.6-.5-1.2-.5-1.2a6.7,6.7,0,0,0-.6-1.1c-.4-.7-.8-1.6-1.3-2.5s-1-1.8-1.4-2.4-.7-1.1-.7-1.1,2.2-2,4.3-4.2,4.2-4.3,4.2-4.3l-1.2-1.7c-.4-.5-.8-1.1-1.3-1.7s-1-1.3-1.5-1.9c-1-1.3-2.2-2.6-3-3.5a13.26,13.26,0,0,0-1-1.1l-.4-.4s-2.6,1.5-5.1,3.1l-5,3.2-.9-.9c-.6-.5-1.3-1.2-2-1.9s-1.5-1.3-2.1-1.8-1-.8-1-.8-.4-.3-1-.8-1.4-1.1-2.2-1.7-1.7-1.2-2.3-1.6-1.1-.7-1.1-.7,1.1-2.8,2-5.6,1.8-5.7,1.8-5.7-.7-.4-1.8-1-2.6-1.4-4.1-2.1-3-1.4-4.2-1.9-2-.8-2-.8-1.7,2.5-3.3,5-3.1,5.1-3.1,5.1-.5-.2-1.2-.4c-.4-.1-.8-.3-1.2-.4s-.9-.3-1.4-.4a18,18,0,0,0-2.7-.7c-.7-.2-1.2-.3-1.2-.3s-.5-.1-1.2-.3-1.7-.3-2.7-.5-2-.3-2.8-.4-1.3-.2-1.3-.2-.1-.7-.2-1.9-.3-2.6-.4-4.1c-.4-3-.8-5.9-.8-5.9s-.8-.1-2.1-.2-2.9-.1-4.6-.1-3.3.1-4.6.1-2.1.2-2.1.2-.5,3-.8,5.9c-.2,1.5-.3,3-.4,4.1s-.2,1.9-.2,1.9-.5.1-1.3.2-1.8.2-2.8.4-2,.3-2.7.5-1.2.3-1.2.3-.5.1-1.2.3-1.7.5-2.7.7c-.5.1-1,.3-1.4.4s-.9.3-1.2.4c-.7.2-1.2.4-1.2.4s-1.5-2.6-3.1-5.1-3.3-5-3.3-5-.8.3-1.9.8-2.7,1.2-4.2,1.9-3,1.5-4.1,2.1-1.8,1-1.8,1,.9,2.9,1.8,5.7l2,5.6a11.62,11.62,0,0,1-1.1.7,55.73,55.73,0,0,0-4.5,3.3c-.6.5-1,.8-1,.8s-.4.3-1,.8-1.3,1.2-2.1,1.8-1.5,1.4-2,1.9a6.05,6.05,0,0,0-.9.9l-5-3.2c-2.5-1.6-5.1-3.1-5.1-3.1a1.2,1.2,0,0,1-.4.4,12,12,0,0,0-1,1.1c-.8,1-2,2.2-3,3.5-.5.7-1,1.3-1.5,1.9s-.9,1.2-1.3,1.7l-1.2,1.7s2,2.2,4.2,4.3,4.3,4.2,4.3,4.2a11.62,11.62,0,0,0-.7,1.1c-.4.7-.9,1.5-1.4,2.4s-.9,1.8-1.3,2.5a5.81,5.81,0,0,1-.6,1.1s-.2.5-.5,1.2a22.63,22.63,0,0,0-1.1,2.6c-.4.9-.7,1.9-1,2.6a6.74,6.74,0,0,0-.4,1.2s-2.9-.4-5.9-.7-6-.5-6-.5a3.22,3.22,0,0,0-.2.6c-.1.4-.2.9-.4,1.5s-.4,1.3-.6,2.1l-.6,2.4c-.4,1.6-.7,3.3-.9,4.5q-.15.9-.3,1.5a1.45,1.45,0,0,1-.1.6s2.8,1.1,5.6,2.1,5.6,1.9,5.6,1.9v.3c0,.2-.1.5-.1.9-.1.8-.1,1.8-.2,2.8s-.1,2-.1,2.8v2.6c0,.8,0,1.8.1,2.8s.2,2,.2,2.8c0,.4.1.7.1.9v.3s-2.8.9-5.6,1.9-5.6,2.1-5.6,2.1a2.8,2.8,0,0,0,.1.6q.15.6.3,1.5c.2,1.2.5,2.9.9,4.5l.6,2.4q.3,1.2.6,2.1c.2.6.3,1.1.4,1.5a1.19,1.19,0,0,0,.2.5s3-.2,6-.5,5.9-.7,5.9-.7.2.5.4,1.2.7,1.7,1,2.6.8,1.9,1.1,2.6.5,1.2.5,1.2a6.7,6.7,0,0,0,.6,1.1c.4.7.8,1.6,1.3,2.5s1,1.8,1.4,2.4.7,1.1.7,1.1-2.2,2-4.3,4.2-4.2,4.3-4.2,4.3l1.2,1.7c.4.5.8,1.1,1.3,1.7s1,1.3,1.5,1.9c1,1.3,2.2,2.6,3,3.5a13.26,13.26,0,0,0,1,1.1l.4.4s2.6-1.5,5.1-3.1l5-3.2a6.05,6.05,0,0,1,.9.9c.6.5,1.3,1.2,2,1.9s1.5,1.3,2.1,1.8,1,.8,1,.8.4.3,1,.8,1.4,1.1,2.2,1.7,1.7,1.2,2.3,1.6,1.1.7,1.1.7-1.1,2.8-2,5.6-1.8,5.7-1.8,5.7.7.4,1.8,1,2.6,1.4,4.1,2.1,3,1.4,4.2,1.9,2,.8,2,.8,1.7-2.5,3.3-5,3.1-5.1,3.1-5.1.5.2,1.2.4c.4.1.8.3,1.2.4s.9.3,1.4.4a18,18,0,0,0,2.7.7c.7.2,1.2.3,1.2.3s.5.1,1.2.3,1.7.3,2.7.5,2,.3,2.8.4,1.3.2,1.3.2.1.7.2,1.9.3,2.6.4,4.1c.4,3,.8,5.9.8,5.9s.8.1,2.1.2,2.9.1,4.6.1,3.3-.1,4.6-.1,2.1-.2,2.1-.2.5-3,.8-5.9c.2-1.5.3-3,.4-4.1s.2-1.9.2-1.9.5-.1,1.3-.2,1.8-.2,2.8-.4,2-.3,2.7-.5,1.2-.3,1.2-.3.5-.1,1.2-.3,1.7-.5,2.7-.7c.5-.1,1-.3,1.4-.4s.9-.3,1.2-.4c.7-.2,1.2-.4,1.2-.4s1.5,2.6,3.1,5.1,3.3,5,3.3,5,.8-.3,2-.8,2.7-1.2,4.2-1.9,3-1.5,4.1-2.1,1.8-1,1.8-1-.9-2.9-1.8-5.7l-2-5.6a11.62,11.62,0,0,1,1.1-.7,55.73,55.73,0,0,0,4.5-3.3c.6-.5,1-.8,1-.8s.4-.3,1-.8,1.3-1.2,2.1-1.8,1.5-1.4,2-1.9a6.05,6.05,0,0,0,.9-.9l5,3.2c2.5,1.6,5.1,3.1,5.1,3.1a1.2,1.2,0,0,1,.4-.4,12,12,0,0,0,1-1.1c.8-1,2-2.2,3-3.5.5-.7,1-1.3,1.5-1.9s.9-1.2,1.3-1.7l1.2-1.7s-2-2.2-4.1-4.3-4.3-4.2-4.3-4.2a11.62,11.62,0,0,0,.7-1.1c.4-.7.9-1.5,1.4-2.4s.9-1.8,1.3-2.5a5.81,5.81,0,0,1,.6-1.1s.2-.5.5-1.2a22.63,22.63,0,0,0,1.1-2.6c.4-.9.7-1.9,1-2.6a6.74,6.74,0,0,0,.4-1.2s2.9.4,5.9.7,6,.5,6,.5a4.2,4.2,0,0,0,.2-.5c.1-.4.2-.9.4-1.5s.4-1.3.6-2.1l.6-2.4c.4-1.6.7-3.3.9-4.5q.15-.9.3-1.5a1.45,1.45,0,0,1,.1-.6s-2.8-1.1-5.6-2.1C219.9,271.9,217.1,271,217.1,271Zm-71.9,51.1A59.1,59.1,0,1,1,204.3,263,59.09,59.09,0,0,1,145.2,322.1Z"/><path class="cls-2" d="M329.9,327.8v-.3a2,2,0,0,1,.1-.7,16.83,16.83,0,0,1,.2-2,12.12,12.12,0,0,1,.1-2V321a14.8,14.8,0,0,0-.1-2c-.1-.7-.1-1.5-.2-2a1.48,1.48,0,0,0-.1-.7v-.2s2-.7,4.1-1.4,4.1-1.5,4.1-1.5a1,1,0,0,0-.1-.4,6.53,6.53,0,0,0-.2-1.1c-.2-.9-.4-2.1-.6-3.3-.1-.6-.3-1.2-.4-1.7a11.31,11.31,0,0,1-.4-1.5c-.1-.4-.2-.8-.3-1.1a1.58,1.58,0,0,1-.1-.4l-4.3.4c-2.1.2-4.3.5-4.3.5l-.3-.9a19.68,19.68,0,0,1-.7-1.9c-.3-.7-.6-1.3-.8-1.8a4.77,4.77,0,0,0-.4-.8,4.77,4.77,0,0,1-.4-.8c-.3-.5-.6-1.2-.9-1.8s-.7-1.3-1-1.7-.5-.8-.5-.8,1.6-1.5,3.1-3,3-3.1,3-3.1a9.87,9.87,0,0,0-.9-1.2,14.63,14.63,0,0,1-.9-1.3,17.1,17.1,0,0,1-1.1-1.4c-.7-1-1.6-1.8-2.1-2.5a4.37,4.37,0,0,1-.7-.8l-.3-.3s-1.9,1.1-3.7,2.2-3.6,2.3-3.6,2.3a7.28,7.28,0,0,0-.7-.6c-.4-.4-.9-.9-1.5-1.4s-1.1-1-1.5-1.3a7.28,7.28,0,0,1-.7-.6,5.17,5.17,0,0,1-.7-.6c-.4-.3-1-.8-1.6-1.2s-1.2-.8-1.7-1.1-.8-.5-.8-.5.8-2,1.5-4.1,1.3-4.1,1.3-4.1l-1.3-.8c-.8-.4-1.9-1-3-1.5s-2.2-1-3-1.4-1.4-.6-1.4-.6l-2.4,3.6c-1.2,1.8-2.3,3.7-2.3,3.7l-.9-.3-.9-.3-1-.3c-.7-.2-1.4-.4-1.9-.5s-.9-.2-.9-.2-.4-.1-.9-.2-1.3-.2-2-.4l-2-.3a5.1,5.1,0,0,0-.9-.1,11.62,11.62,0,0,0-.1-1.3c-.1-.8-.2-1.9-.3-2.9-.3-2.1-.6-4.3-.6-4.3s-.6,0-1.5-.1-2.1-.1-3.3-.1-2.4.1-3.3.1-1.5.1-1.5.1-.3,2.1-.6,4.3c-.1,1.1-.2,2.1-.3,2.9a11.62,11.62,0,0,0-.1,1.3,5.1,5.1,0,0,0-.9.1,19.58,19.58,0,0,0-2,.3,11.8,11.8,0,0,0-2,.4c-.5.1-.9.2-.9.2s-.4.1-.9.2-1.2.3-1.9.5c-.4.1-.7.2-1,.3l-.9.3a7.78,7.78,0,0,1-.9.3s-1.1-1.9-2.3-3.7l-2.4-3.6a11.89,11.89,0,0,0-1.4.6c-.8.3-1.9.9-3,1.4s-2.2,1.1-3,1.5l-1.3.8s.6,2.1,1.3,4.1,1.5,4.1,1.5,4.1-.3.2-.8.5-1.1.7-1.7,1.1a11.09,11.09,0,0,0-1.6,1.2,7.28,7.28,0,0,0-.7.6,5.17,5.17,0,0,0-.7.6c-.4.4-1,.8-1.5,1.3s-1.1,1-1.5,1.4a5.17,5.17,0,0,1-.7.6s-1.8-1.2-3.6-2.3-3.7-2.2-3.7-2.2l-.3.3c-.2.2-.4.5-.7.8-.6.7-1.4,1.6-2.1,2.5a17.1,17.1,0,0,1-1.1,1.4,14.63,14.63,0,0,1-.9,1.3c-.5.7-.9,1.2-.9,1.2s1.5,1.6,3,3.1,3.1,3,3.1,3-.2.3-.5.8-.6,1.1-1,1.7a10,10,0,0,0-.9,1.8,4.77,4.77,0,0,1-.4.8,4.77,4.77,0,0,0-.4.8c-.2.5-.5,1.2-.8,1.8s-.5,1.4-.7,1.9a7.78,7.78,0,0,0-.3.9s-2.1-.3-4.3-.5l-4.3-.4a1.58,1.58,0,0,1-.1.4,8.11,8.11,0,0,0-.3,1.1,15.46,15.46,0,0,0-.4,1.5c-.1.6-.3,1.1-.4,1.7a26.09,26.09,0,0,0-.6,3.3c-.1.4-.1.8-.2,1.1a.58.58,0,0,1-.1.4s2,.8,4.1,1.5,4.1,1.4,4.1,1.4v.3a2,2,0,0,1-.1.7,16.83,16.83,0,0,1-.2,2,12.12,12.12,0,0,1-.1,2v1.8a14.8,14.8,0,0,0,.1,2c.1.7.1,1.5.2,2a1.48,1.48,0,0,0,.1.7v.3s-2,.6-4.1,1.4-4.1,1.5-4.1,1.5a1,1,0,0,0,.1.4,6.53,6.53,0,0,0,.2,1.1c.2.9.4,2.1.6,3.3.1.6.3,1.2.4,1.7a11.31,11.31,0,0,1,.4,1.5c.1.4.2.8.3,1.1a1.58,1.58,0,0,1,.1.4l4.3-.4c2.1-.2,4.3-.5,4.3-.5l.3.9a19.68,19.68,0,0,1,.7,1.9c.3.7.6,1.3.8,1.8a4.77,4.77,0,0,0,.4.8,4.77,4.77,0,0,1,.4.8c.3.5.6,1.2.9,1.8s.7,1.3,1,1.7.5.8.5.8-1.6,1.5-3.1,3-3,3.1-3,3.1a9.87,9.87,0,0,0,.9,1.2,14.63,14.63,0,0,1,.9,1.3c.3.4.7.9,1.1,1.4.7,1,1.6,1.8,2.1,2.5a4.37,4.37,0,0,1,.7.8l.3.3s1.9-1.1,3.7-2.2,3.6-2.3,3.6-2.3a7.28,7.28,0,0,0,.7.6c.4.4.9.9,1.5,1.4s1.1,1,1.5,1.3a7.28,7.28,0,0,1,.7.6,5.17,5.17,0,0,1,.7.6,11.09,11.09,0,0,0,1.6,1.2,12,12,0,0,0,1.7,1.1c.5.3.8.5.8.5s-.8,2-1.5,4.1-1.3,4.1-1.3,4.1l1.3.8c.8.4,1.9,1,3,1.5s2.2,1,3,1.4,1.4.6,1.4.6l2.4-3.6c1.2-1.8,2.3-3.7,2.3-3.7l.9.3.9.3,1,.3c.7.2,1.4.4,1.9.5s.9.2.9.2.4.1.9.2,1.3.2,2,.4l2,.3a5.1,5.1,0,0,0,.9.1,7.31,7.31,0,0,1,.1,1.3c.1.8.2,1.9.3,2.9.3,2.1.6,4.3.6,4.3s.6,0,1.5.1,2.1.1,3.3.1,2.4,0,3.3-.1,1.5-.1,1.5-.1.3-2.1.6-4.3c.1-1.1.2-2.1.3-2.9a11.62,11.62,0,0,0,.1-1.3,5.1,5.1,0,0,0,.9-.1,19.58,19.58,0,0,0,2-.3,11.8,11.8,0,0,0,2-.4c.5-.1.9-.2.9-.2s.4-.1.9-.2,1.2-.3,1.9-.5c.4-.1.7-.2,1-.3l.9-.3a7.78,7.78,0,0,1,.9-.3s1.1,1.9,2.3,3.7l2.4,3.6a11.89,11.89,0,0,0,1.4-.6c.8-.3,1.9-.9,3-1.4s2.2-1.1,3-1.5l1.3-.8s-.6-2.1-1.3-4.1-1.5-4.1-1.5-4.1.3-.2.8-.5,1.1-.7,1.7-1.1a11.09,11.09,0,0,0,1.6-1.2,7.28,7.28,0,0,0,.7-.6,5.17,5.17,0,0,0,.7-.6c.4-.4,1-.8,1.5-1.3s1.1-1,1.5-1.4a5.17,5.17,0,0,1,.7-.6s1.8,1.2,3.6,2.3,3.7,2.2,3.7,2.2l.3-.3c.2-.2.4-.5.7-.8.6-.7,1.4-1.6,2.1-2.5a17.1,17.1,0,0,1,1.1-1.4,14.63,14.63,0,0,1,.9-1.3c.5-.7.9-1.2.9-1.2s-1.5-1.6-3-3.1-3.1-3-3.1-3,.2-.3.5-.8.6-1.1,1-1.7a10,10,0,0,0,.9-1.8,4.77,4.77,0,0,1,.4-.8,4.77,4.77,0,0,0,.4-.8c.2-.5.5-1.2.8-1.8s.5-1.4.7-1.9a7.78,7.78,0,0,0,.3-.9s2.1.3,4.3.5l4.3.4a1.58,1.58,0,0,1,.1-.4,8.11,8.11,0,0,0,.3-1.1,15.46,15.46,0,0,0,.4-1.5c.1-.6.3-1.1.4-1.7a26.09,26.09,0,0,0,.6-3.3c.1-.4.1-.8.2-1.1a.58.58,0,0,1,.1-.4s-2-.8-4.1-1.5S329.9,327.8,329.9,327.8ZM278,364.6a42.7,42.7,0,1,1,42.7-42.7A42.68,42.68,0,0,1,278,364.6Z"/><path class="cls-3" d="M326.3,236.4a1.75,1.75,0,0,1,.1-.5c0-.3.1-.8.1-1.3.1-1.1.2-2.5.3-3.9s.1-2.9.1-3.9v-3.6c0-1.1,0-2.5-.1-3.9s-.2-2.9-.3-3.9c0-.5-.1-1-.1-1.3a1.21,1.21,0,0,0-.1-.5s4-1.3,8-2.7,7.9-3,7.9-3a4.53,4.53,0,0,0-.1-.8c-.1-.5-.2-1.2-.4-2.1-.3-1.7-.7-4.1-1.3-6.4-.3-1.2-.5-2.3-.8-3.4s-.6-2.1-.8-2.9a14.24,14.24,0,0,0-.6-2.1,7.35,7.35,0,0,0-.2-.8s-4.2.3-8.4.8-8.3,1-8.3,1-.2-.7-.6-1.7-.9-2.3-1.4-3.7-1.2-2.6-1.6-3.6-.7-1.6-.7-1.6l-.8-1.6c-.5-.9-1.1-2.2-1.8-3.5s-1.4-2.5-2-3.4l-1-1.5s3-2.9,6-5.9,5.8-6.1,5.8-6.1-.7-1-1.7-2.4c-.5-.7-1.1-1.6-1.8-2.5l-2.1-2.7c-1.4-1.9-3-3.6-4.2-5-.6-.7-1.1-1.2-1.4-1.6l-.6-.6s-3.7,2.1-7.2,4.3-7.1,4.5-7.1,4.5-.5-.5-1.3-1.2-1.8-1.8-2.9-2.7-2.2-1.9-3-2.6a15.07,15.07,0,0,0-1.4-1.1,15.07,15.07,0,0,1-1.4-1.1,33.85,33.85,0,0,0-3.2-2.3c-1.2-.8-2.3-1.7-3.2-2.2l-1.5-1s1.5-3.9,2.9-7.9,2.6-8,2.6-8-1-.6-2.6-1.5-3.7-1.9-5.8-3-4.3-2-5.9-2.6-2.7-1.1-2.7-1.1-2.4,3.5-4.6,7-4.4,7.2-4.4,7.2-.7-.2-1.7-.6c-.5-.2-1.1-.4-1.7-.6s-1.3-.4-2-.6c-1.4-.4-2.7-.8-3.8-1s-1.7-.4-1.7-.4-.7-.2-1.7-.4-2.5-.5-3.9-.7-2.8-.4-3.9-.6-1.8-.2-1.8-.2-.1-1-.2-2.6-.4-3.7-.6-5.7c-.5-4.2-1.1-8.3-1.1-8.3s-1.2-.1-2.9-.2-4.1-.1-6.5-.2c-2.4.1-4.7.1-6.5.2s-2.9.2-2.9.2-.6,4.2-1.1,8.3c-.3,2.1-.5,4.2-.6,5.7s-.2,2.6-.2,2.6-.7.1-1.8.2a34,34,0,0,0-3.9.6c-1.4.3-2.8.5-3.9.7s-1.7.4-1.7.4-.7.2-1.7.4-2.4.6-3.8,1c-.7.2-1.4.4-2,.6s-1.2.4-1.7.6a17.63,17.63,0,0,0-1.7.6s-2.1-3.6-4.4-7.2-4.6-7-4.6-7-1.1.4-2.7,1.1-3.8,1.7-5.9,2.6c-2.1,1.1-4.2,2.1-5.8,3s-2.6,1.5-2.6,1.5,1.2,4,2.6,8,2.9,7.9,2.9,7.9l-1.5,1c-.9.6-2.1,1.4-3.2,2.2s-2.3,1.7-3.2,2.3a15.07,15.07,0,0,1-1.4,1.1,15.07,15.07,0,0,0-1.4,1.1c-.8.7-1.9,1.6-3,2.6s-2.1,2-2.9,2.7-1.3,1.2-1.3,1.2-3.5-2.3-7.1-4.5-7.2-4.3-7.2-4.3l-.6.6A12.21,12.21,0,0,0,137,146c-1.1,1.4-2.8,3.1-4.2,5-.7.9-1.5,1.9-2.1,2.7s-1.2,1.7-1.8,2.5c-1,1.4-1.7,2.4-1.7,2.4s2.9,3.1,5.8,6.1,6,5.9,6,5.9l-1,1.5c-.5.9-1.2,2.2-2,3.4s-1.3,2.5-1.8,3.5l-.8,1.6s-.3.7-.7,1.6-1.1,2.3-1.6,3.6-1,2.7-1.4,3.7-.6,1.7-.6,1.7-4.1-.6-8.3-1-8.4-.8-8.4-.8a7.35,7.35,0,0,0-.2.8,18.87,18.87,0,0,1-.6,2.1c-.2.9-.5,1.8-.8,2.9s-.5,2.2-.8,3.4c-.6,2.3-1,4.6-1.3,6.4-.2.9-.3,1.6-.4,2.1a4.53,4.53,0,0,0-.1.8s3.9,1.5,7.9,3,8,2.7,8,2.7a1.75,1.75,0,0,1-.1.5c0,.3-.1.8-.1,1.3-.1,1.1-.2,2.5-.3,3.9s-.1,2.9-.1,3.9v3.6c0,1.1,0,2.5.1,3.9s.2,2.9.3,3.9c0,.5.1,1,.1,1.3a1.21,1.21,0,0,0,.1.5s-4,1.3-8,2.7-7.9,2.9-7.9,2.9a4.53,4.53,0,0,0,.1.8c.1.5.2,1.2.4,2.1.3,1.7.7,4.1,1.3,6.4.3,1.2.5,2.3.8,3.4s.6,2.1.8,2.9a14.24,14.24,0,0,0,.6,2.1,7.35,7.35,0,0,0,.2.8s4.2-.3,8.4-.8,8.3-1,8.3-1,.2.7.6,1.7.9,2.3,1.4,3.7,1.2,2.6,1.6,3.6.7,1.6.7,1.6l.8,1.6c.5.9,1.1,2.2,1.8,3.5s1.4,2.5,2,3.4l1,1.5s-3,2.9-6,5.9-5.8,6.1-5.8,6.1.7,1,1.7,2.4c.5.7,1.1,1.6,1.8,2.5l2.1,2.7c1.4,1.9,3,3.6,4.2,5,.6.7,1.1,1.2,1.4,1.6l.6.6s3.7-2.1,7.2-4.3,7.1-4.5,7.1-4.5.5.5,1.3,1.2,1.8,1.8,2.9,2.7,2.2,1.9,3,2.6a15.07,15.07,0,0,0,1.4,1.1,15.07,15.07,0,0,1,1.4,1.1,33.85,33.85,0,0,0,3.2,2.3c1.2.8,2.3,1.7,3.2,2.2l1.5,1s-1.5,3.9-2.9,7.9-2.6,8-2.6,8,1,.6,2.6,1.5,3.7,1.9,5.8,3,4.3,2,5.9,2.6,2.7,1.1,2.7,1.1,2.4-3.5,4.6-7,4.4-7.2,4.4-7.2.7.2,1.7.6c.5.2,1.1.4,1.7.6s1.3.4,2,.6c1.4.4,2.7.8,3.8,1s1.7.4,1.7.4.7.2,1.7.4,2.5.5,3.9.7,2.8.4,3.9.6,1.8.2,1.8.2.1,1,.2,2.6.4,3.7.6,5.7c.5,4.2,1.1,8.3,1.1,8.3s1.2.1,2.9.2,4.1.1,6.5.2c2.4-.1,4.7-.1,6.5-.2s2.9-.2,2.9-.2.6-4.2,1.1-8.3c.3-2.1.5-4.2.6-5.7s.2-2.6.2-2.6.7-.1,1.8-.2a34,34,0,0,0,3.9-.6c1.4-.3,2.8-.5,3.9-.7s1.7-.4,1.7-.4.7-.2,1.7-.4,2.4-.6,3.8-1c.7-.2,1.4-.4,2-.6s1.2-.4,1.7-.6a17.63,17.63,0,0,0,1.7-.6s2.1,3.6,4.4,7.2,4.6,7,4.6,7,1.1-.4,2.7-1.1,3.8-1.7,5.9-2.6c2.1-1.1,4.2-2.1,5.8-3s2.6-1.5,2.6-1.5-1.2-4-2.6-8-2.9-7.9-2.9-7.9l1.5-1c.9-.6,2.1-1.4,3.2-2.2s2.3-1.7,3.2-2.3a15.07,15.07,0,0,1,1.4-1.1,15.07,15.07,0,0,0,1.4-1.1c.8-.7,1.9-1.6,3-2.6s2.1-2,2.9-2.7,1.3-1.2,1.3-1.2,3.5,2.3,7.1,4.5,7.2,4.3,7.2,4.3l.6-.6a12.21,12.21,0,0,0,1.4-1.6c1.1-1.4,2.8-3.1,4.2-5,.7-.9,1.5-1.9,2.1-2.7a30.4,30.4,0,0,0,1.8-2.5c1-1.4,1.7-2.4,1.7-2.4s-2.9-3.1-5.8-6.1-6-5.9-6-5.9l1-1.5c.5-.9,1.2-2.2,2-3.4s1.3-2.5,1.8-3.5l.8-1.6s.3-.7.7-1.6,1.1-2.3,1.6-3.6,1-2.7,1.4-3.7.6-1.7.6-1.7,4.1.6,8.3,1,8.4.8,8.4.8a7.35,7.35,0,0,0,.2-.8,18.87,18.87,0,0,1,.6-2.1c.2-.9.5-1.8.8-2.9s.5-2.2.8-3.4c.6-2.3,1-4.6,1.3-6.4.2-.9.3-1.6.4-2.1a4.53,4.53,0,0,0,.1-.8s-3.9-1.5-7.9-2.9S326.3,236.4,326.3,236.4Z"/><circle class="cls-4" cx="225" cy="225" r="73.4"/><path class="cls-5" d="M225,168.5a1.37,1.37,0,0,1-1.4-1.4V158a1.4,1.4,0,0,1,2.8,0v9.1A1.37,1.37,0,0,1,225,168.5Z"/><path class="cls-5" d="M225,293.4a1.37,1.37,0,0,1-1.4-1.4v-9.1a1.4,1.4,0,0,1,2.8,0V292A1.37,1.37,0,0,1,225,293.4Z"/><path class="cls-5" d="M196,175.4a.55.55,0,0,1-.5-.3l-4.5-7.9a.58.58,0,0,1,1-.6l4.5,7.9a.54.54,0,0,1-.2.8A.37.37,0,0,1,196,175.4Z"/><path class="cls-5" d="M258.5,283.6a.55.55,0,0,1-.5-.3l-4.5-7.9a.58.58,0,0,1,1-.6l4.5,7.9a.54.54,0,0,1-.2.8C258.7,283.5,258.6,283.6,258.5,283.6Z"/><path class="cls-5" d="M174.9,196.6a.37.37,0,0,1-.3-.1l-7.9-4.5a.58.58,0,0,1,.6-1l7.9,4.5a.54.54,0,0,1,.2.8A.91.91,0,0,1,174.9,196.6Z"/><path class="cls-5" d="M283,259.1a.37.37,0,0,1-.3-.1l-7.9-4.5a.58.58,0,1,1,.6-1l7.9,4.5a.54.54,0,0,1,.2.8A.55.55,0,0,1,283,259.1Z"/><path class="cls-5" d="M167.1,226.4H158a1.4,1.4,0,0,1,0-2.8h9.1a1.4,1.4,0,1,1,0,2.8Z"/><path class="cls-5" d="M292,226.4h-9.1a1.4,1.4,0,1,1,0-2.8H292a1.4,1.4,0,0,1,0,2.8Z"/><path class="cls-5" d="M167,259a.55.55,0,0,1-.5-.3.54.54,0,0,1,.2-.8l7.9-4.5a.58.58,0,1,1,.6,1l-7.9,4.5A.37.37,0,0,1,167,259Z"/><path class="cls-5" d="M275.1,196.6a.55.55,0,0,1-.5-.3.54.54,0,0,1,.2-.8l7.9-4.5a.58.58,0,1,1,.6,1l-7.9,4.5A.37.37,0,0,1,275.1,196.6Z"/><path class="cls-5" d="M191.5,283.6a.37.37,0,0,1-.3-.1.54.54,0,0,1-.2-.8l4.5-7.9a.58.58,0,0,1,1,.6l-4.5,7.9A.55.55,0,0,1,191.5,283.6Z"/><path class="cls-5" d="M254,175.4a.37.37,0,0,1-.3-.1.54.54,0,0,1-.2-.8l4.5-7.9a.58.58,0,1,1,1,.6l-4.5,7.9A.91.91,0,0,1,254,175.4Z"/><path class="cls-5" d="M211.9,239.6a1.5,1.5,0,0,1-1.1-.4,1.57,1.57,0,0,1,0-2.2l47.8-47.8a1.56,1.56,0,1,1,2.2,2.2L213,239.2A1.5,1.5,0,0,1,211.9,239.6Z"/><path class="cls-5" d="M231.7,233.9a2,2,0,0,1-1.6-.7l-30.6-30.6a2.26,2.26,0,0,1,3.2-3.2L233.3,230a2.23,2.23,0,0,1,0,3.2A2.29,2.29,0,0,1,231.7,233.9Z"/><path class="cls-6" d="M245.1,282.3a1.17,1.17,0,0,1-1.1-.8c-5.2-14.8-10.6-29.8-15.8-44.3-2.9-7.9-5.7-15.8-8.5-23.6a1.17,1.17,0,1,1,2.2-.8c2.8,7.8,5.6,15.7,8.5,23.6,5.2,14.5,10.7,29.6,15.8,44.3a1.23,1.23,0,0,1-.7,1.5A.6.6,0,0,1,245.1,282.3Z"/><path class="cls-6" d="M220.3,225a4.7,4.7,0,1,1,4.7,4.7A4.69,4.69,0,0,1,220.3,225Z"/><path class="cls-7" d="M225,139.6A85.4,85.4,0,1,0,310.4,225,85.36,85.36,0,0,0,225,139.6Zm0,158.8A73.4,73.4,0,1,1,298.4,225,73.45,73.45,0,0,1,225,298.4Z"/></svg>
