<svg id="icono" xmlns="http://www.w3.org/2000/svg" viewBox="0 0 283.5 283.5"><defs><style>.cls-1{fill:#e79a00;}.cls-2{fill:#fff;}</style></defs><title>Mesa de trabajo 1</title><circle class="cls-1" cx="141.8" cy="141.8" r="141.8"/><path class="cls-2" d="M135.5,95.7a1.8,1.8,0,0,0,0,3.6H148a1.8,1.8,0,1,0,0-3.6Z"/><path class="cls-2" d="M135.8,94h11.8c2,0,7.9-22.2,6.5-23.6s-2.5,1.2-4.5,1.2-2-1.4-4-1.4-2,1.4-4,1.4h0c-2,0-2-1.4-4-1.4s-2,1.4-4,1.4-3.1-2.6-4.5-1.2C127.9,71.9,133.8,94,135.8,94Z"/><path class="cls-2" d="M148,101.1H135.3c-11.3,10.9-33.7,35.3-33.7,59.3a40.2,40.2,0,1,0,80.4,0C181.9,137.3,159.2,112.2,148,101.1Zm-3,68.6V176h-7.1v-5.8a30.12,30.12,0,0,1-11-2.6l2-8.6a24.54,24.54,0,0,0,10.8,2.7c3.2,0,5.3-.9,5.3-2.9s-1.8-3.1-6.4-4.5c-6.7-2.2-11.5-5.3-11.5-11.6,0-5.6,3.9-10.1,11-11.5v-5.7h7.1v5.2a27.06,27.06,0,0,1,9.4,2l-2,8.2a21.9,21.9,0,0,0-9.4-2.1c-3.7,0-4.8,1.3-4.8,2.7s2.1,2.7,7.3,4.6c7.8,2.5,10.7,6.1,10.7,11.7C156.5,163.6,152.4,168.4,145,169.7Z"/><path class="cls-2" d="M190.3,99.3a1.6,1.6,0,0,0,0,3.2h11.4a1.6,1.6,0,1,0,0-3.2Z"/><path class="cls-2" d="M190.6,97.8h10.8c1.8,0,7.1-20.1,5.9-21.4s-2.3,1.1-4.1,1.1-1.8-1.3-3.6-1.3-1.8,1.3-3.6,1.3h0c-1.8,0-1.8-1.3-3.6-1.3s-1.8,1.3-3.6,1.3-2.8-2.4-4.1-1.1S188.8,97.8,190.6,97.8Z"/><path class="cls-2" d="M201.6,104.2H190.1a143.54,143.54,0,0,0-18.7,21.7c6.6,10.1,11.9,21.4,12.6,32.4l.4-1.5a23.22,23.22,0,0,0,9.9,2.5c2.9,0,4.8-.8,4.8-2.6s-1.6-2.8-5.9-4.1c-6.1-2-10.4-4.8-10.4-10.5,0-5.1,3.5-9.2,10-10.5v-5.2h6.4v4.7a25.28,25.28,0,0,1,8.5,1.8l-1.8,7.5a20.32,20.32,0,0,0-8.5-1.9c-3.3,0-4.3,1.2-4.3,2.4,0,1.4,1.9,2.5,6.6,4.2,7.1,2.3,9.7,5.5,9.7,10.6s-3.7,9.6-10.5,10.8v5.7h-6.4V167a26.68,26.68,0,0,1-8.6-1.8,42.73,42.73,0,0,1-9.3,22.4A36.46,36.46,0,0,0,232.4,158C232.5,137.1,211.9,114.3,201.6,104.2Z"/><path class="cls-2" d="M81.8,99.3a1.6,1.6,0,1,0,0,3.2H93.2a1.6,1.6,0,0,0,0-3.2Z"/><path class="cls-2" d="M82.1,97.8H92.9c1.8,0,7.1-20.1,5.9-21.4s-2.3,1.1-4.1,1.1-1.8-1.3-3.6-1.3-1.8,1.3-3.6,1.3h0c-1.8,0-1.8-1.3-3.6-1.3s-1.8,1.3-3.6,1.3-2.8-2.4-4.1-1.1S80.3,97.8,82.1,97.8Z"/><path class="cls-2" d="M90.4,166.6v5.7H84v-5.2a25.74,25.74,0,0,1-10-2.4l1.9-7.8a23.22,23.22,0,0,0,9.9,2.5c2.9,0,4.8-.8,4.8-2.6s-1.6-2.8-5.9-4.1c-6.1-2-10.4-4.8-10.4-10.5,0-5.1,3.5-9.2,10-10.5v-5.2h6.4v4.7a25.28,25.28,0,0,1,8.5,1.8l-1.8,7.5a20.32,20.32,0,0,0-8.5-1.9c-3.3,0-4.3,1.2-4.3,2.4,0,1.4,1.9,2.5,6.6,4.2,5.1,1.7,7.9,3.8,9,6.8,1.8-9.1,6.2-18,11.4-26a155.62,155.62,0,0,0-18.5-21.7H81.6c-10.3,9.8-30.6,32-30.6,53.8a36.46,36.46,0,0,0,57.8,29.6,42.15,42.15,0,0,1-9.5-26.4C97.6,163.9,94.6,165.8,90.4,166.6Z"/></svg>
