<?xml version="1.0" encoding="utf-8"?>
<!-- Generator: Adobe Illustrator 22.0.0, SVG Export Plug-In . SVG Version: 6.00 Build 0)  -->
<svg version="1.1" id="Layer_1" xmlns="http://www.w3.org/2000/svg" xmlns:xlink="http://www.w3.org/1999/xlink" x="0px" y="0px"
	 viewBox="0 0 96.4 96.4" style="enable-background:new 0 0 96.4 96.4;" xml:space="preserve">
<style type="text/css">
	.st0{opacity:0.3;}
</style>
<title>Artboard 1</title>
<g id="Layer_2_1_" class="st0">
	<g id="Capa_1">
		<path id="_Compound_Path_" d="M48.3,79.1c-11.7,0-17,8-17,8c5.3,2.3,11.1,3.5,16.9,3.5c5.9,0,11.6-1.2,17-3.6
			C65.2,87,60,79.1,48.3,79.1 M70.1,12.2c0,0-6.5,10.6-21.8,10.6S25.7,12.2,25.7,12.2c-4.3,2.8-8.1,6.3-11.2,10.4
			c0,0,12.3,8.5,33.8,8.5s33.4-8.9,33.4-8.9C78.5,18.3,74.6,14.9,70.1,12.2 M48.2,5.9c-5.9,0-11.8,1.2-17.2,3.7
			c0,0,4.7,7.6,17.3,7.6s16.5-8,16.5-8C59.6,7,53.9,5.9,48.2,5.9 M48.2,96.4c-19.7,0-37.5-12-44.8-30.4h6.4c0.5,1.1,1.1,2.2,1.6,3.3
			c2-1.3,4.1-2.4,6.3-3.3h22.5c-15.4,1.8-25.4,8.1-25.4,8.1c3.1,4.1,7,7.6,11.5,10.3c0,0,7.8-11,22.2-11c8.8-0.1,17.1,3.9,22.4,10.8
			c4.2-2.7,7.9-6,11-10c0,0-9.4-6.4-25-8.2h22.6c2,0.9,3.9,1.9,5.8,3c0.6-1,1.1-2,1.6-3h6.4C85.8,84.4,68,96.4,48.2,96.4 M56.7,66
			c-2.8-0.3-5.6-0.5-8.3-0.5s-5.5,0.1-8.2,0.5H17.6c9.6-4.3,20.1-6.5,30.7-6.5c10.7,0,21.2,2.2,31,6.5H56.7z M93.1,66h-6.4
			c2.2-4.7,3.5-9.8,3.8-15H6c0.3,5.2,1.6,10.3,3.8,15H3.4C1.1,60.3,0,54.3,0,48.2c0-2.4,0.2-4.8,0.5-7.1h6c-0.3,1.3-0.4,2.7-0.5,4
			h84.4c-0.1-1.3-0.2-2.7-0.5-4h6c0.3,2.4,0.4,4.7,0.5,7.1C96.5,54.3,95.3,60.3,93.1,66 M90,41.1c-0.9-4.8-2.6-9.4-5.1-13.6
			c-11.2,6.2-23.8,9.5-36.6,9.4c-12.9,0-25.7-3.2-37.1-9.2c-2.4,4.1-4,8.7-4.7,13.4h-6C4.4,14.7,29-3.4,55.3,0.5
			c21,3.1,37.5,19.6,40.6,40.6H90z"/>
	</g>
</g>
</svg>
