<svg id="Layer_1" data-name="Layer 1" xmlns="http://www.w3.org/2000/svg" viewBox="0 0 96.43 96.42"><defs><style>.cls-1{fill:#fff;}</style></defs><title>Artboard 1</title><g id="Layer_2" data-name="Layer 2"><g id="Capa_1" data-name="Capa 1"><path id="_Compound_Path_" data-name=" Compound Path " class="cls-1" d="M48.32,79.05c-11.73,0-17,8-17,8a42.7,42.7,0,0,0,16.86,3.48,41.81,41.81,0,0,0,17-3.57S60,79.05,48.32,79.05m21.82-66.8s-6.52,10.6-21.82,10.6-22.58-10.6-22.58-10.6a43.12,43.12,0,0,0-11.23,10.4s12.31,8.5,33.81,8.5,33.36-8.88,33.36-8.88a41.56,41.56,0,0,0-11.54-10M48.21,5.88A41,41,0,0,0,31,9.57s4.69,7.6,17.34,7.6,16.5-8,16.5-8A43.3,43.3,0,0,0,48.21,5.88m0,90.54A48.25,48.25,0,0,1,3.39,66H9.75c.49,1.06,1.09,2.22,1.64,3.28A38.85,38.85,0,0,1,17.65,66H40.12c-15.43,1.75-25.43,8.1-25.43,8.1A41.68,41.68,0,0,0,26.15,84.38s7.83-11,22.17-11a27.71,27.71,0,0,1,22.39,10.8,42.63,42.63,0,0,0,11-10s-9.37-6.43-25-8.18h22.6a49.22,49.22,0,0,1,5.82,3c.6-1,1.09-2,1.57-3h6.37A48.26,48.26,0,0,1,48.21,96.42M56.67,66a61.35,61.35,0,0,0-8.35-.48,59.18,59.18,0,0,0-8.2.48H17.65a74,74,0,0,1,30.67-6.47,76.75,76.75,0,0,1,31,6.47Zm36.4,0H86.7a42.45,42.45,0,0,0,3.85-15H6A41.48,41.48,0,0,0,9.75,66H3.39A47.55,47.55,0,0,1,0,48.21a56.56,56.56,0,0,1,.52-7.12h6a24.56,24.56,0,0,0-.49,4H90.46a33.58,33.58,0,0,0-.48-4h6a62.74,62.74,0,0,1,.47,7.12A47.35,47.35,0,0,1,93.07,66M90,41.09A40.86,40.86,0,0,0,84.92,27.5a74.28,74.28,0,0,1-36.6,9.42A78.62,78.62,0,0,1,11.2,27.68,39.53,39.53,0,0,0,6.49,41.09h-6a48.25,48.25,0,0,1,95.44,0Z"/></g></g></svg>
